<?xml version="1.0" encoding="utf-8"?>
<!-- Generator: Adobe Illustrator 23.0.3, SVG Export Plug-In . SVG Version: 6.00 Build 0)  -->
<svg version="1.1" xmlns="http://www.w3.org/2000/svg" xmlns:xlink="http://www.w3.org/1999/xlink" x="0px" y="0px"
	 viewBox="0 0 500 500" style="enable-background:new 0 0 500 500;" xml:space="preserve">
<style type="text/css">
	.st0{fill:#F5F5F5;}
	.st1{fill:#EBEBEB;}
	.st2{fill:#153993;}
	.st3{fill:#FFFFFF;}
	.st4{fill:#4469D7;}
	.st5{fill:#FAFAFA;}
	.st6{fill:#E0E0E0;}
	.st7{fill:#455A64;}
	.st8{fill:#2BEF0F;}
	.st9{fill:#EAEA1C;}
	.st10{fill:#FF3737;}
	.st11{opacity:0.1;}
	.st12{opacity:0.4;fill:#FFFFFF;}
	.st13{opacity:0.2;}
	.st14{fill:#FAFAFA;stroke:#E0E0E0;stroke-width:1.1698;stroke-miterlimit:10;}
	.st15{fill:#37474F;}
</style>
<g id="Floor">
	<path id="Floor_15_" class="st0" d="M85.45,418.01c88.76,45.38,232.66,45.38,321.42,0c88.76-45.38,88.76-118.95,0-164.33
		c-88.76-45.38-232.66-45.38-321.42,0C-3.3,299.05-3.3,372.63,85.45,418.01z"/>
</g>
<g id="Shadows">
	<path id="Shadow_37_" class="st1" d="M375.73,345.51c4.86,2.81,14.42,1.84,21.35-2.16l39.94-23.19c6.93-4,8.59-9.52,3.72-12.34
		c-4.87-2.81-14.44-1.85-21.37,2.15l-39.9,23.2C372.54,337.18,370.87,342.7,375.73,345.51z"/>
	<polygon id="Shadow_36_" class="st1" points="135.31,366.9 94.69,343.45 135.31,320 	"/>
	<polygon id="Shadow_35_" class="st1" points="250.12,380.93 184.65,343.11 250.13,305.36 	"/>
</g>
<g id="Plants">
	<g id="Plants_14_">
		<g id="XMLID_3252_">
			<g id="XMLID_3255_">
				<path id="XMLID_3276_" class="st2" d="M80.36,312.07c0.11-9.5-6.52-29.26-16.23-41.72c-9.71-12.46-25.1-21.66-36.16-18.03
					c-10.3,3.38-9.35,16.85,2.99,25.92c12.34,9.07,30.91,20.49,36.19,35.97l11.25,19.05L80.36,312.07z"/>
			</g>
			<g id="XMLID_3253_">
				<path id="XMLID_3254_" class="st3" d="M80.91,325.08c-0.3-0.03-0.56-0.25-0.62-0.57c-5.97-32.51-31.89-59.19-47.53-65.2
					c-0.36-0.14-0.54-0.54-0.4-0.9c0.14-0.36,0.51-0.49,0.9-0.4c19.62,4.75,42.99,33,48.39,66.25c0.06,0.38-0.18,0.74-0.56,0.81
					C81.03,325.08,80.97,325.08,80.91,325.08z"/>
			</g>
		</g>
		<g id="XMLID_3246_">
			<g id="XMLID_3250_">
				<path id="XMLID_3251_" class="st4" d="M75.82,345.78c-1.46-5.36-7.88-14.25-18.34-21.66c-11.58-8.19-26.3-12.07-29.63-18.38
					c-4-7.58,2.43-14.62,14.4-12.99c11.97,1.63,32.85,18.24,35.93,42.91L75.82,345.78z"/>
			</g>
			<g id="XMLID_3247_">
				<path id="XMLID_3249_" class="st3" d="M78.21,340.2c-0.26-0.02-0.5-0.2-0.59-0.47c-9.61-27.9-30.69-37.91-40.5-39.3
					c-0.38-0.05-0.64-0.41-0.59-0.78c0.05-0.38,0.39-0.64,0.78-0.59c10.84,1.54,31.8,11.74,41.62,40.23
					c0.12,0.36-0.07,0.76-0.43,0.88C78.4,340.2,78.3,340.21,78.21,340.2z"/>
			</g>
		</g>
	</g>
	<g id="Plants_15_">
		<g id="XMLID_3135_">
			<path id="XMLID_3120_" class="st2" d="M434.93,285.02c0,0,1.33-20.03,13.14-34.9c11.8-14.87,11.08-20.99,2.94-23.99
				c-8.14-3-27.05,14.92-22.84,38.92S434.93,285.02,434.93,285.02z"/>
			<g id="XMLID_3136_">
				<path id="XMLID_3137_" class="st3" d="M431.32,273.58c-0.24,0-0.45-0.19-0.46-0.44c-1.38-22.06,14.2-40.16,20.03-44.25
					c0.21-0.15,0.5-0.1,0.65,0.11c0.15,0.21,0.1,0.5-0.11,0.65c-5.72,4.02-20.99,21.77-19.64,43.44c0.02,0.26-0.18,0.48-0.43,0.49
					C431.34,273.58,431.33,273.58,431.32,273.58z"/>
			</g>
		</g>
		<g id="XMLID_3036_">
			<g id="XMLID_3073_">
				<path id="XMLID_3119_" class="st4" d="M431.72,301.56c0,0,7.11,2.47,16.26,3.91c9.14,1.45,13.18-2.92,13.18-2.92
					s-3.6-8.57-8.79-10.98c0,0,8.8,1.79,15.87,6.51c0,0,5.58,0.08,7.8-8.43c0,0-3.31-5.13-14.4-7.9c0,0,6.75-1.7,16.48,0.78
					c0.73,0.29,3.84-10.73,4.78-15.81c0.94-5.08-1.1-5.03-5.06-6.09c-3.96-1.06-17.08-4-19.56-1.83c-2.48,2.18-3.74,9.63-3.74,9.63
					s-1.63-4.4-0.37-9.44c0,0-3.57-1.39-9.1,0.22c-4.53,1.32-4.75,4.4-4.54,7.88c0.15,2.54,0.76,5.25,1.96,8.84
					c0,0-3.53-4.52-3.64-14.32c0,0-9.26,4.6-10.84,13.79C427.13,280.37,425.91,294.96,431.72,301.56z"/>
				<g id="XMLID_3093_">
					<path id="XMLID_3118_" class="st3" d="M433.46,299.78c0.19,0,0.37-0.11,0.46-0.29c7.38-15.33,34.8-33.13,44.63-35.04
						c0.28-0.05,0.46-0.32,0.41-0.6c-0.05-0.28-0.33-0.46-0.6-0.41c-9.99,1.94-37.86,20.04-45.35,35.61
						c-0.12,0.26-0.02,0.56,0.24,0.69C433.31,299.76,433.39,299.78,433.46,299.78z"/>
				</g>
			</g>
		</g>
	</g>
</g>
<g id="Computer_Screen">
	<g id="XMLID_1118_">
		<g id="XMLID_1204_">
			<g id="XMLID_1203_">
				<path class="st5" d="M76.78,352.86c-1.13,0-1.81-0.94-1.81-2.51V182.15L280.96,63.22l0,167.53c0,2.57-1.81,5.71-4.04,6.99
					L78.42,352.35C77.84,352.69,77.27,352.86,76.78,352.86L76.78,352.86z"/>
				<path class="st6" d="M280.38,64.23l0,166.52c0,2.34-1.72,5.31-3.75,6.49L78.13,351.84c-0.49,0.28-0.96,0.43-1.35,0.43
					c-1.11,0-1.23-1.34-1.23-1.92V182.49L280.38,64.23 M281.55,62.2L74.38,181.81v168.55c0,1.96,0.98,3.09,2.4,3.09
					c0.58,0,1.24-0.19,1.93-0.59l198.5-114.61c2.39-1.38,4.33-4.74,4.33-7.5L281.55,62.2L281.55,62.2z"/>
			</g>
			<polygon id="XMLID_2173_" class="st4" points="74.38,181.81 74.38,209.96 281.55,90.35 281.55,62.2 			"/>
			<path id="XMLID_1167_" class="st5" d="M90.63,183.31l0,4.04c0,0.82,0.58,1.16,1.3,0.75l63.69-36.77l0-7.04l-63.69,36.77
				C91.22,181.48,90.63,182.49,90.63,183.31z"/>
			<path id="XMLID_1189_" class="st7" d="M162.45,140.35c0.72-0.41,1.3-0.08,1.3,0.75v4.04c0,0.83-0.58,1.84-1.3,2.25l-6.83,3.94
				l0-7.04L162.45,140.35z"/>
			<path id="XMLID_2992_" class="st7" d="M74.38,172.74c0-2.76,1.94-6.12,4.33-7.5l198.5-114.61c2.39-1.38,4.33-0.26,4.33,2.5v9.07
				L74.38,181.81V172.74z"/>
			<g id="XMLID_1202_">
				<path id="XMLID_1201_" class="st8" d="M258.52,66.14c-1.12,0.65-2.03,2.22-2.03,3.52s0.91,1.82,2.03,1.17
					c1.12-0.65,2.03-2.22,2.03-3.52C260.56,66.01,259.65,65.49,258.52,66.14z"/>
				<path id="XMLID_1198_" class="st9" d="M264.96,62.42c-1.12,0.65-2.03,2.22-2.03,3.52s0.91,1.82,2.03,1.17
					c1.12-0.65,2.03-2.22,2.03-3.52C266.99,62.29,266.08,61.77,264.96,62.42z"/>
				<path id="XMLID_1196_" class="st10" d="M271.39,58.7c-1.12,0.65-2.03,2.22-2.03,3.52c0,1.3,0.91,1.82,2.03,1.17
					c1.12-0.65,2.03-2.22,2.03-3.52C273.42,58.57,272.51,58.05,271.39,58.7z"/>
			</g>
			<g id="XMLID_1168_" class="st11">
				<path id="XMLID_1187_" d="M216.55,108.67c-2.45,1.42-4.44,4.86-4.44,7.69c0,2.83,1.99,3.98,4.44,2.56
					c2.45-1.42,4.44-4.86,4.44-7.69S219.01,107.26,216.55,108.67z"/>
				<path id="XMLID_1188_" d="M196.25,120.4c-2.45,1.42-4.44,4.86-4.44,7.69c0,2.83,1.99,3.98,4.44,2.56
					c2.45-1.42,4.44-4.86,4.44-7.69C200.68,120.13,198.7,118.99,196.25,120.4z"/>
				<path id="XMLID_1186_" d="M236.87,96.95c-2.45,1.42-4.44,4.86-4.44,7.69c0,2.83,1.99,3.98,4.44,2.56
					c2.45-1.42,4.44-4.86,4.44-7.69C241.3,96.68,239.32,95.53,236.87,96.95z"/>
				<path id="XMLID_1190_" d="M257.18,85.2c-2.45,1.42-4.44,4.86-4.44,7.69c0,2.83,1.99,3.98,4.44,2.56
					c2.45-1.42,4.44-4.86,4.44-7.69C261.62,84.93,259.63,83.78,257.18,85.2z"/>
			</g>
		</g>
		<path id="XMLID_2170_" class="st6" d="M94.96,212.15l48.21-27.83c2.39-1.38,4.33-0.26,4.33,2.5v46.29c0,2.76-1.94,6.12-4.33,7.5
			l-48.21,27.83c-2.39,1.38-4.33,0.26-4.33-2.5l0-46.29C90.63,216.88,92.57,213.53,94.96,212.15z"/>
		<path id="XMLID_3029_" class="st6" d="M164.02,172.28l101.01-58.32c2.39-1.38,4.33-0.26,4.33,2.5v46.29c0,2.76-1.94,6.12-4.33,7.5
			l-101.01,58.32c-2.39,1.38-4.33,0.26-4.33-2.5l0-46.29C159.69,177.02,161.63,173.66,164.02,172.28z"/>
		<g id="XMLID_3030_">
			<path id="XMLID_3117_" class="st6" d="M94.96,282.5l76.64-44.25c2.39-1.38,4.33-0.4,4.33,2.19c0,2.59-1.94,5.81-4.33,7.19
				l-76.64,44.25c-2.39,1.38-4.33,0.4-4.33-2.19C90.63,287.1,92.57,283.88,94.96,282.5z"/>
			<path id="XMLID_3095_" class="st6" d="M94.96,298.92l76.64-44.25c2.39-1.38,4.33-0.4,4.33,2.19c0,2.59-1.94,5.81-4.33,7.19
				L94.96,308.3c-2.39,1.38-4.33,0.4-4.33-2.19C90.63,303.52,92.57,300.3,94.96,298.92z"/>
			<path id="XMLID_3094_" class="st6" d="M94.96,315.33l76.64-44.25c2.39-1.38,4.33-0.4,4.33,2.19c0,2.59-1.94,5.81-4.33,7.19
				l-76.64,44.25c-2.39,1.38-4.33,0.4-4.33-2.19C90.63,319.93,92.57,316.71,94.96,315.33z"/>
		</g>
	</g>
</g>
<g id="Envelope">
	<g id="XMLID_3248_">
		<g id="Letter_2_">
			<g id="XMLID_3260_">
				<g id="XMLID_3261_">
					<path id="XMLID_3262_" class="st4" d="M131.25,259.67c0-1.66,1.16-3.67,2.6-4.5l132.91-76.74c1.43-0.83,3.76-0.83,5.2,0
						l2.93,1.69c1.43,0.83,2.6,2.84,2.6,4.5v101.88c0,1.65-1.17,3.67-2.6,4.5l-132.91,76.74c-1.43,0.83-3.77,0.83-5.2,0l-2.93-1.69
						c-1.43-0.82-2.6-2.85-2.6-4.5L131.25,259.67z"/>
				</g>
			</g>
			<path id="XMLID_3259_" class="st12" d="M132.01,257.11l7.37,4.25l137.34-79.3c-0.47-0.81-1.12-1.52-1.83-1.94l-2.94-1.68
				c-1.43-0.84-3.76-0.84-5.19,0l-132.91,76.73C133.13,255.59,132.48,256.3,132.01,257.11z"/>
			<path id="XMLID_3258_" class="st11" d="M131.25,259.67v101.88c0,1.66,1.17,3.67,2.61,4.5l2.93,1.7c0.22,0.12,0.45,0.23,0.71,0.32
				c0.33,0.11,0.69,0.2,1.07,0.25c0.68,0.09,1.39,0.06,2.05-0.07c0.17-0.04,0.34-0.09,0.5-0.14c0.11-0.04,0.21-0.07,0.31-0.12
				c-0.48,0.17-0.9,0.15-1.24-0.02c-0.49-0.26-0.8-0.85-0.8-1.71V264.37c0-1.07,0.54-1.88,1.35-2.21l-1.35-0.79l-7.37-4.25
				C131.54,257.92,131.25,258.85,131.25,259.67z"/>
			<path id="XMLID_3257_" class="st13" d="M139.39,261.37l61.55,23c4.39,1.63,9.32,0.01,11.87-3.91l9.88-15.14l54.52-83.53
				l-52.55,84.1l52.82,20.67c-0.01,0.84-0.32,1.77-0.81,2.59l-52.15-23.03l-11.49,18.38c-2.64,4.22-7.98,5.86-12.52,3.85l-8.18-3.61
				l-52.14,83.22c-0.49-0.26-0.8-0.85-0.8-1.71v-1.7l52.69-79.92L139.39,261.37z"/>
		</g>
	</g>
</g>
<g id="Mobile_Screen">
	<g id="XMLID_2171_">
		<path id="XMLID_2869_" class="st14" d="M249.05,144.41v233.9c0,2.76,1.94,3.88,4.33,2.5l105.08-60.67
			c2.39-1.38,4.33-4.74,4.33-7.5V78.74c0-2.76-1.94-3.88-4.33-2.5l-105.08,60.67C250.99,138.29,249.05,141.64,249.05,144.41z"/>
		<path id="XMLID_2970_" class="st7" d="M255.14,148.76c0-0.65,0.5-1.46,1.13-1.82l11.97-6.91c0.62-0.36,1.13-0.12,1.13,0.52
			c0,0.65-0.5,1.46-1.13,1.82l-11.97,6.91C255.65,149.65,255.14,149.41,255.14,148.76z"/>
		<path id="XMLID_2972_" class="st7" d="M255.14,153.42c0-0.65,0.5-1.46,1.13-1.82l11.97-6.91c0.62-0.36,1.13-0.12,1.13,0.52
			c0,0.65-0.5,1.46-1.13,1.82l-11.97,6.91C255.65,154.3,255.14,154.07,255.14,153.42z"/>
		<path id="XMLID_2973_" class="st7" d="M255.14,158.08c0-0.65,0.5-1.46,1.13-1.82l11.97-6.91c0.62-0.36,1.13-0.12,1.13,0.52
			c0,0.65-0.5,1.46-1.13,1.82l-11.97,6.91C255.65,158.96,255.14,158.73,255.14,158.08z"/>
		<path id="XMLID_2989_" class="st15" d="M354.67,98.1v-1.87c0-0.11-0.08-0.16-0.18-0.12l-1.44,0.65c-0.1,0.05-0.21,0-0.24-0.11
			c-0.08-0.26-0.19-0.5-0.32-0.71c-0.06-0.1-0.07-0.25-0.02-0.35l0.96-1.94c0.05-0.1,0.01-0.23-0.09-0.28l-1.04-0.6
			c-0.1-0.06-0.22-0.03-0.29,0.07l-1.2,1.8c-0.06,0.09-0.2,0.16-0.31,0.16c-0.25-0.01-0.51,0.02-0.78,0.08
			c-0.11,0.02-0.2-0.04-0.22-0.15l-0.16-1.57c-0.01-0.11-0.1-0.16-0.19-0.1l-1.62,0.93c-0.1,0.06-0.18,0.19-0.19,0.3l-0.16,1.8
			c-0.01,0.11-0.09,0.26-0.17,0.34c-0.31,0.29-0.62,0.61-0.9,0.95c-0.07,0.09-0.21,0.13-0.32,0.09l-1.04-0.36
			c-0.11-0.04-0.24,0.01-0.29,0.11l-1.19,2.06c-0.06,0.1-0.03,0.23,0.05,0.31l0.83,0.72c0.08,0.07,0.12,0.22,0.08,0.32
			c-0.15,0.42-0.28,0.84-0.37,1.25c-0.02,0.11-0.12,0.25-0.21,0.31l-1.48,1.04c-0.09,0.06-0.17,0.21-0.17,0.32v1.87
			c0,0.11,0.08,0.16,0.18,0.12l1.44-0.65c0.1-0.05,0.21,0,0.24,0.11c0.08,0.26,0.19,0.5,0.32,0.71c0.06,0.1,0.07,0.25,0.02,0.35
			l-0.96,1.94c-0.05,0.1-0.01,0.23,0.09,0.28l1.04,0.6c0.1,0.06,0.22,0.03,0.29-0.07l1.2-1.8c0.06-0.09,0.2-0.16,0.31-0.16
			c0.25,0.01,0.51-0.02,0.78-0.08c0.11-0.02,0.2,0.04,0.22,0.15l0.16,1.57c0.01,0.11,0.1,0.16,0.2,0.1l1.62-0.93
			c0.1-0.06,0.18-0.19,0.19-0.3l0.16-1.8c0.01-0.11,0.09-0.26,0.17-0.34c0.31-0.29,0.62-0.61,0.9-0.95
			c0.07-0.09,0.21-0.13,0.32-0.09l1.04,0.36c0.11,0.04,0.24-0.01,0.29-0.11l1.19-2.06c0.06-0.1,0.03-0.23-0.05-0.31l-0.83-0.72
			c-0.08-0.07-0.12-0.22-0.08-0.32c0.15-0.42,0.28-0.84,0.37-1.25c0.02-0.11,0.12-0.25,0.21-0.31l1.48-1.04
			C354.59,98.35,354.67,98.21,354.67,98.1z M348.34,103.97c-1.51,0.87-2.73,0.16-2.73-1.58c0-1.74,1.22-3.86,2.73-4.73
			c1.51-0.87,2.73-0.17,2.73,1.58C351.07,100.98,349.85,103.1,348.34,103.97z"/>
		<g id="XMLID_3074_">
			<path id="XMLID_3091_" class="st7" d="M305.92,144.2c12.28-7.09,22.23-1.34,22.23,12.83s-9.95,31.42-22.23,38.5
				c-12.28,7.09-22.23,1.34-22.23-12.83C283.69,168.53,293.64,151.29,305.92,144.2z"/>
			<path id="XMLID_3076_" class="st4" d="M305.77,155.36c3.98-2.3,7.21-0.44,7.21,4.16c0,4.6-3.23,10.19-7.21,12.49
				c-3.98,2.3-7.21,0.44-7.21-4.16C298.55,163.25,301.78,157.66,305.77,155.36z"/>
			<path id="XMLID_3075_" class="st4" d="M319.98,179.88c0-7.56-5.31-10.62-11.85-6.84l-4.09,2.36
				c-6.54,3.78-11.85,12.97-11.85,20.52v2.06c1.18,0.39,2.46,0.59,3.82,0.59c2.98,0.01,6.35-0.98,9.91-3.04
				c5.33-3.08,10.23-8.08,14.06-13.91V179.88z"/>
		</g>
		<path id="XMLID_3140_" class="st4" d="M285.86,216.63l40.13-23.17c1.2-0.69,2.17-0.2,2.17,1.1c0,1.3-0.97,2.9-2.17,3.6
			l-40.13,23.17c-1.2,0.69-2.17,0.2-2.17-1.1S284.66,217.32,285.86,216.63z"/>
		<path id="XMLID_3142_" class="st7" d="M281.55,233.21l48.74-28.17c1.2-0.69,2.17-0.2,2.17,1.1s-0.97,2.9-2.17,3.6l-48.74,28.17
			c-1.2,0.69-2.17,0.2-2.17-1.1C279.38,235.51,280.35,233.9,281.55,233.21z"/>
		<path id="XMLID_3148_" class="st15" d="M331.59,227.74l13.65-7.88c0.72-0.41,1.3-0.22,1.3,0.42c0,0.65-0.58,1.51-1.3,1.92
			l-13.65,7.88c-0.72,0.41-1.3,0.23-1.3-0.42S330.88,228.16,331.59,227.74z"/>
		<g id="XMLID_3157_">
			<path id="XMLID_3141_" class="st4" d="M263.4,262.43l20.04-11.57c1.2-0.69,2.17-0.13,2.17,1.25v13.76c0,1.38-0.97,3.06-2.16,3.75
				l-20.04,11.57c-1.2,0.69-2.17,0.13-2.17-1.25v-13.76C261.24,264.8,262.21,263.12,263.4,262.43z"/>
			<path id="XMLID_3143_" class="st5" d="M266.6,264.35l13.65-7.88c0.72-0.41,1.3-0.22,1.3,0.42c0,0.65-0.58,1.51-1.3,1.92
				l-13.65,7.88c-0.72,0.41-1.3,0.23-1.3-0.42C265.3,265.63,265.88,264.77,266.6,264.35z"/>
			<path id="XMLID_3146_" class="st5" d="M265.3,271.29v4.04c0,0.83,0.58,1.16,1.3,0.75l13.65-7.88c0.72-0.41,1.3-1.42,1.3-2.25
				l0-4.04c0-0.83-0.58-1.16-1.3-0.75l-13.65,7.88C265.88,269.46,265.3,270.47,265.3,271.29z"/>
		</g>
		<g id="XMLID_3149_">
			<path id="XMLID_3155_" class="st4" d="M295.9,243.67l20.04-11.57c1.2-0.69,2.17-0.13,2.17,1.25l0,13.76
				c0,1.38-0.97,3.06-2.17,3.75l-20.04,11.57c-1.2,0.69-2.17,0.13-2.17-1.25l0-13.76C293.73,246.04,294.7,244.36,295.9,243.67z"/>
			<path id="XMLID_3154_" class="st5" d="M299.1,245.59l13.65-7.88c0.72-0.41,1.3-0.22,1.3,0.42c0,0.65-0.58,1.51-1.3,1.92
				l-13.65,7.88c-0.72,0.41-1.3,0.23-1.3-0.42S298.38,246.01,299.1,245.59z"/>
			<path id="XMLID_3153_" class="st5" d="M297.8,252.53v4.04c0,0.83,0.58,1.16,1.3,0.75l13.65-7.88c0.72-0.41,1.3-1.42,1.3-2.25
				l0-4.04c0-0.83-0.58-1.16-1.3-0.75l-13.65,7.88C298.38,250.7,297.8,251.7,297.8,252.53z"/>
		</g>
		<g id="XMLID_3159_">
			<path id="XMLID_3176_" class="st4" d="M328.4,224.91l20.04-11.57c1.2-0.69,2.17-0.13,2.17,1.25v13.76c0,1.38-0.97,3.06-2.17,3.75
				l-20.04,11.57c-1.2,0.69-2.17,0.13-2.17-1.25v-13.76C326.23,227.28,327.2,225.6,328.4,224.91z"/>
			<path id="XMLID_3173_" class="st5" d="M331.59,226.83l13.65-7.88c0.72-0.41,1.3-0.23,1.3,0.42c0,0.65-0.58,1.51-1.3,1.92
				l-13.65,7.88c-0.72,0.41-1.3,0.22-1.3-0.42S330.88,227.24,331.59,226.83z"/>
			<path id="XMLID_3163_" class="st5" d="M330.29,233.77v4.04c0,0.83,0.58,1.16,1.3,0.75l13.65-7.88c0.72-0.41,1.3-1.42,1.3-2.25
				l0-4.04c0-0.83-0.58-1.16-1.3-0.75l-13.65,7.88C330.88,231.93,330.29,232.94,330.29,233.77z"/>
		</g>
		<path id="XMLID_3144_" class="st6" d="M265.57,294.01l80.7-46.59c2.39-1.38,4.33-0.4,4.33,2.19c0,2.59-1.94,5.81-4.33,7.19
			l-80.7,46.59c-2.39,1.38-4.33,0.4-4.33-2.19C261.24,298.61,263.18,295.39,265.57,294.01z"/>
		<path id="XMLID_3147_" class="st6" d="M265.57,312.77l80.7-46.59c2.39-1.38,4.33-0.4,4.33,2.19s-1.94,5.81-4.33,7.19l-80.7,46.59
			c-2.39,1.38-4.33,0.4-4.33-2.19C261.24,317.37,263.18,314.15,265.57,312.77z"/>
		<path id="XMLID_3178_" class="st4" d="M291.84,321.06L320,304.8c1.2-0.69,2.17-0.13,2.17,1.25l0,9.07c0,1.38-0.97,3.06-2.17,3.75
			l-28.17,16.26c-1.2,0.69-2.17,0.13-2.17-1.25l0-9.07C289.67,323.43,290.64,321.75,291.84,321.06z"/>
		<g id="XMLID_3180_">
			<path id="XMLID_3027_" class="st5" d="M267.33,295.39c-1.12,0.65-2.03,2.22-2.03,3.52c0,1.3,0.91,1.82,2.03,1.17
				c1.12-0.65,2.03-2.22,2.03-3.52C269.36,295.27,268.45,294.74,267.33,295.39z"/>
			<path id="XMLID_3023_" class="st5" d="M273.77,291.67c-1.12,0.65-2.03,2.22-2.03,3.52c0,1.3,0.91,1.82,2.03,1.17
				c1.12-0.65,2.03-2.22,2.03-3.52C275.8,291.55,274.89,291.02,273.77,291.67z"/>
			<path id="XMLID_3021_" class="st5" d="M280.2,287.95c-1.12,0.65-2.03,2.22-2.03,3.52c0,1.3,0.91,1.82,2.03,1.17
				c1.12-0.65,2.03-2.22,2.03-3.52S281.32,287.3,280.2,287.95z"/>
			<path id="XMLID_2993_" class="st5" d="M286.64,284.23c-1.12,0.65-2.03,2.22-2.03,3.52c0,1.3,0.91,1.82,2.03,1.17
				c1.12-0.65,2.03-2.22,2.03-3.52C288.67,284.11,287.76,283.58,286.64,284.23z"/>
			<path id="XMLID_2176_" class="st5" d="M293.07,280.51c-1.12,0.65-2.03,2.22-2.03,3.52c0,1.3,0.91,1.82,2.03,1.17
				c1.12-0.65,2.03-2.22,2.03-3.52C295.1,280.39,294.19,279.86,293.07,280.51z"/>
			<path id="XMLID_2175_" class="st5" d="M299.5,276.79c-1.12,0.65-2.03,2.22-2.03,3.52c0,1.3,0.91,1.82,2.03,1.17
				c1.12-0.65,2.03-2.22,2.03-3.52S300.63,276.14,299.5,276.79z"/>
			<path id="XMLID_2174_" class="st5" d="M305.94,273.07c-1.12,0.65-2.03,2.22-2.03,3.52c0,1.3,0.91,1.82,2.03,1.17
				c1.12-0.65,2.03-2.22,2.03-3.52C307.97,272.95,307.06,272.42,305.94,273.07z"/>
		</g>
		<g id="XMLID_2172_">
			<path id="XMLID_3020_" class="st5" d="M267.33,314.17c-1.12,0.65-2.03,2.22-2.03,3.52c0,1.3,0.91,1.82,2.03,1.17
				c1.12-0.65,2.03-2.22,2.03-3.52S268.45,313.53,267.33,314.17z"/>
			<path id="XMLID_3017_" class="st5" d="M273.77,310.45c-1.12,0.65-2.03,2.22-2.03,3.52c0,1.3,0.91,1.82,2.03,1.17
				c1.12-0.65,2.03-2.22,2.03-3.52C275.8,310.33,274.89,309.8,273.77,310.45z"/>
			<path id="XMLID_3016_" class="st5" d="M280.2,306.73c-1.12,0.65-2.03,2.22-2.03,3.52c0,1.3,0.91,1.82,2.03,1.17
				c1.12-0.65,2.03-2.22,2.03-3.52C282.23,306.61,281.32,306.08,280.2,306.73z"/>
			<path id="XMLID_3015_" class="st5" d="M286.64,303.01c-1.12,0.65-2.03,2.22-2.03,3.52c0,1.3,0.91,1.82,2.03,1.17
				c1.12-0.65,2.03-2.22,2.03-3.52S287.76,302.36,286.64,303.01z"/>
			<path id="XMLID_3008_" class="st5" d="M293.07,299.29c-1.12,0.65-2.03,2.22-2.03,3.52c0,1.3,0.91,1.82,2.03,1.17
				c1.12-0.65,2.03-2.22,2.03-3.52C295.1,299.17,294.19,298.64,293.07,299.29z"/>
			<path id="XMLID_2995_" class="st5" d="M299.5,295.57c-1.12,0.65-2.03,2.22-2.03,3.52c0,1.3,0.91,1.82,2.03,1.17
				c1.12-0.65,2.03-2.22,2.03-3.52C301.53,295.45,300.63,294.92,299.5,295.57z"/>
			<path id="XMLID_2994_" class="st5" d="M305.94,291.85c-1.12,0.65-2.03,2.22-2.03,3.52c0,1.3,0.91,1.82,2.03,1.17
				c1.12-0.65,2.03-2.22,2.03-3.52C307.97,291.73,307.06,291.2,305.94,291.85z"/>
		</g>
	</g>
</g>
<g id="Key">
	<g id="XMLID_1166_">
		<g id="XMLID_1191_">
			<g id="XMLID_1192_">
				<path id="XMLID_2975_" class="st7" d="M396.19,334.13c-3.51,0-6.83-0.86-9.85-2.6c-7.21-4.16-11.34-12.87-11.34-23.89
					c0-19.38,12.32-41.68,28.05-50.76c8.47-4.89,16.88-5.42,23.68-1.49c7.21,4.16,11.34,12.87,11.34,23.89
					c0,19.38-12.32,41.68-28.05,50.76C405.3,332.76,400.6,334.13,396.19,334.13z M416.85,266.75c-2.52,0-5.19,1.27-6.83,2.21
					c-11.42,6.59-21.07,24.31-21.07,38.68c0,5.82,1.63,10.23,4.36,11.81c3.11,1.8,7.43-0.16,9.73-1.49
					c11.42-6.59,21.07-24.31,21.07-38.68c0-5.82-1.63-10.23-4.36-11.81C418.86,266.95,417.86,266.75,416.85,266.75z"/>
			</g>
			<path id="XMLID_2986_" class="st15" d="M426.61,282.38c0-10.89-6.86-14.91-6.86-14.91l0,0c2.73,1.58,4.36,5.99,4.36,11.81
				c0,14.37-9.65,32.08-21.07,38.68c-2.3,1.33-6.62,3.29-9.73,1.49c0,0,5.79,3.59,13.78-0.77
				C418.68,312.36,426.61,296.75,426.61,282.38z"/>
		</g>
		<path id="XMLID_2978_" class="st15" d="M415.61,146.29c0-3.98-3.23-7.21-7.21-7.21c-3.98,0-7.21,3.23-7.21,7.21
			c0,0.01,0,0.01,0,0.02h0v114.71l0,0c0,1.07,0.7,2.13,2.11,2.94c2.82,1.63,7.38,1.63,10.2,0c1.41-0.81,2.11-1.88,2.11-2.94l0,0
			V146.31h0C415.61,146.31,415.61,146.3,415.61,146.29z"/>
		<path id="XMLID_2974_" class="st7" d="M409.85,171.93c0-2.66-1.86-5.89-4.17-7.21c-1.17-0.68-2.22-0.72-2.98-0.26l0-0.01
			l-17.8,10.25l-0.43,0.26c-0.06,0.03-0.12,0.06-0.17,0.1c-0.31,0.21-0.59,0.44-0.85,0.7c-1.08,1.07-1.74,2.55-1.74,4.18
			c0,2.24,1.24,4.18,3.07,5.19c0.84,0.45,1.79,0.71,2.82,0.71c1.02,0,1.98-0.26,2.81-0.71c0.11-0.06,0.23-0.13,0.34-0.19
			l17.91-10.32l0,0C409.39,174.17,409.85,173.24,409.85,171.93z"/>
		<path id="XMLID_2971_" class="st7" d="M409.85,200.65c0-2.66-1.86-5.89-4.17-7.21c-1.17-0.68-2.22-0.72-2.98-0.26l0-0.01
			l-20.86,11.98l-0.43,0.26c-0.06,0.03-0.12,0.06-0.17,0.1c-0.31,0.21-0.59,0.44-0.85,0.7c-1.08,1.07-1.74,2.55-1.74,4.18
			c0,2.24,1.24,4.18,3.07,5.19c0.84,0.45,1.79,0.71,2.82,0.71c1.02,0,1.98-0.26,2.81-0.71c0.11-0.06,0.23-0.13,0.34-0.19
			l20.97-12.04l0,0C409.39,202.9,409.85,201.97,409.85,200.65z"/>
	</g>
</g>
</svg>
