<?xml version="1.0" encoding="utf-8"?>
<!-- Generator: Adobe Illustrator 23.0.3, SVG Export Plug-In . SVG Version: 6.00 Build 0)  -->
<svg version="1.1" xmlns="http://www.w3.org/2000/svg" xmlns:xlink="http://www.w3.org/1999/xlink" x="0px" y="0px"
	 viewBox="0 0 500 500" style="enable-background:new 0 0 500 500;" xml:space="preserve">
<style type="text/css">
	.st0{fill:#F5F5F5;}
	.st1{fill:#E0E0E0;}
	.st2{fill:#EBEBEB;}
	.st3{fill:#4469D7;}
	.st4{fill:#FFFFFF;}
	.st5{fill:#37474F;}
	.st6{fill:#263238;}
	.st7{fill:#455A64;}
	.st8{fill:#F0F0F0;}
	.st9{opacity:0.4;fill:#FFFFFF;}
	.st10{fill:#27DEBF;}
	.st11{opacity:0.15;}
	.st12{fill:#12275B;}
	.st13{opacity:0.3;}
	.st14{opacity:0.1;}
	.st15{fill:#B16668;}
	.st16{fill:#0A132B;}
	.st17{fill:#9A4A4D;}
</style>
<g id="Floor">
	<path id="Floor_4_" class="st0" d="M88.45,442.21c90.21,53.24,236.47,53.24,326.67,0c90.21-53.24,90.21-139.55,0-192.79
		c-90.21-53.24-236.47-53.24-326.68,0C-1.76,302.66-1.76,388.98,88.45,442.21z"/>
</g>
<g id="Shadow">
	<ellipse id="Shadows_1_" class="st1" cx="391.14" cy="405.54" rx="44.19" ry="25.51"/>
</g>
<g id="Clouds">
	<g id="Clouds_7_">
		<path id="XMLID_968_" class="st2" d="M363.42,77.14l7.67,4.43c-0.04-0.34-0.06-0.68-0.06-1.02v-2.22c0-3.95,2.78-5.56,6.2-3.58
			c1.39,0.8,2.66,2.07,3.69,3.55c0.56-4.97,4.46-6.82,9.2-4.09c5.12,2.96,9.27,10.15,9.27,16.06v3.32c0,1.53-0.28,2.82-0.79,3.85
			l6.37,3.68c1.9,1.1,3.44,3.76,3.44,5.96c0,2.19-1.54,3.08-3.44,1.99l-41.56-23.99c-1.9-1.1-3.44-3.76-3.44-5.96
			C359.98,76.93,361.52,76.04,363.42,77.14z"/>
		<path id="XMLID_867_" class="st2" d="M330.6,99.48l5.79,3.34c-0.03-0.26-0.05-0.52-0.05-0.77v-1.68c0-2.98,2.09-4.19,4.68-2.7
			c1.05,0.6,2.01,1.56,2.79,2.68c0.42-3.75,3.37-5.15,6.94-3.09c3.87,2.23,7,7.66,7,12.12v2.51c0,1.16-0.21,2.13-0.59,2.91
			l4.81,2.78c1.43,0.83,2.6,2.84,2.6,4.5c0,1.66-1.16,2.33-2.6,1.5l-31.36-18.11c-1.43-0.83-2.6-2.84-2.6-4.5
			C328.01,99.32,329.17,98.65,330.6,99.48z"/>
	</g>
</g>
<g id="Plant">
	<g id="Plants_1_">
		<path id="XMLID_1526_" class="st3" d="M73.88,288.62c-0.57,0.31-11.02,3.27-14.89-1.84c-3.87-5.12,2.55-13.09-1.08-16.03
			c-3.63-2.94-13.81,0.02-16.27-6.17c-2.45-6.19,4.81-8.84,0.73-15.08c-2.57-3.93-8.89-6.12-9.44-9.75
			c-0.93-6.06,9.12-8.85,17.71-3.13c8.59,5.72,13.79,3.1,16.52,2.72c2.73-0.38,8.61,0.46,8.42,10.04
			C75.38,258.95,73.88,288.62,73.88,288.62z"/>
		<g id="XMLID_1524_">
			<path id="XMLID_1525_" class="st4" d="M74.57,275.01c-0.27,0-0.52-0.2-0.56-0.48c-2.99-18.17-24.11-32.95-35.09-36.12
				c-0.3-0.09-0.48-0.4-0.39-0.71c0.09-0.3,0.4-0.48,0.71-0.39c11.23,3.24,32.83,18.39,35.9,37.03c0.05,0.31-0.16,0.6-0.47,0.65
				C74.63,275.01,74.6,275.01,74.57,275.01z"/>
		</g>
		<g id="XMLID_1517_">
			<path id="XMLID_1518_" class="st4" d="M49.67,259.8c-0.19,0-0.38-0.1-0.49-0.28c-0.16-0.27-0.07-0.62,0.2-0.78
				c0.34-0.2,8.47-4.95,16.47-2.73c0.3,0.08,0.48,0.4,0.4,0.7c-0.08,0.3-0.39,0.48-0.7,0.4c-7.53-2.09-15.51,2.57-15.58,2.61
				C49.87,259.78,49.77,259.8,49.67,259.8z"/>
		</g>
	</g>
</g>
<g id="Device">
	<g id="Laptop">
		<path id="XMLID_30734_" class="st5" d="M77.93,295.6c0,2.59,1.94,5.81,4.33,7.19l121.33,70.05c2.39,1.38,6.27,1.38,8.66,0
			l166.01-95.84c2.39-1.38,4.33-4.6,4.33-7.19c0-2.59-1.94-5.81-4.33-7.19l-121.33-70.05c-2.39-1.38-6.27-1.38-8.66,0L82.26,288.41
			C79.87,289.79,77.93,293.01,77.93,295.6z"/>
		<path id="XMLID_980_" class="st6" d="M207.92,364.5v9.37c-1.57,0-3.14-0.34-4.33-1.03L82.26,302.79c-2.39-1.38-4.33-4.6-4.33-7.19
			c0-2.43,1.71-5.41,3.89-6.91c-1.94,1.39-1.79,3.43,0.44,4.72l121.33,70.05C204.78,364.15,206.35,364.5,207.92,364.5z"/>
		<path id="XMLID_30732_" class="st7" d="M73.87,288.56c-2.24-1.3-4.06-4.58-4.06-7.35l0-144.78c0-2.76,1.94-6.12,4.33-7.5
			l166.01-95.84c2.39-1.38,6.15-1.45,8.39-0.15c2.24,1.3,4.06,4.58,4.06,7.35v144.78c0,2.76-1.94,6.12-4.33,7.5L82.26,288.41
			C79.87,289.79,76.11,289.86,73.87,288.56z"/>
		<path id="XMLID_979_" class="st6" d="M81.75,288.67c-2.39,1.12-5.79,1.1-7.88-0.11c-2.24-1.29-4.06-4.58-4.06-7.34V136.43
			c0-1.38,0.48-2.91,1.27-4.26l8.12,4.68v0.01c-0.78,1.36-1.27,2.88-1.27,4.26v144.79C77.93,288.47,79.6,289.62,81.75,288.67z"/>
		<path id="XMLID_30730_" class="st5" d="M77.93,141.12v144.78c0,2.76,1.94,3.88,4.33,2.5l166.01-95.84
			c2.39-1.38,4.33-4.74,4.33-7.5V40.28c0-2.76-1.94-3.88-4.33-2.5L82.26,133.62C79.87,135.01,77.93,138.36,77.93,141.12z"/>
		<path id="XMLID_30712_" class="st7" d="M82.26,293.41l121.33,70.05c2.39,1.38,6.27,1.38,8.66,0l166.01-95.84
			c2.39-1.38,2.39-3.62,0-5l-121.33-70.05c-2.39-1.38-6.27-1.38-8.66,0L82.26,288.41C79.87,289.79,79.87,292.03,82.26,293.41z"/>
		<path id="XMLID_30711_" class="st3" d="M84.59,141.66l160.05-92.38c1.43-0.83,2.6-0.16,2.6,1.5v125.33c0,1.66-1.16,3.67-2.6,4.5
			L84.59,272.99c-1.43,0.83-2.6,0.16-2.6-1.5V146.16C81.99,144.5,83.15,142.49,84.59,141.66z"/>
		<g id="XMLID_1364_">
			<path id="XMLID_1366_" class="st8" d="M164.27,133.73c4.26-2.46,7.72-0.47,7.72,4.45c0,4.92-3.45,10.9-7.72,13.36
				c-4.26,2.46-7.72,0.47-7.72-4.45C156.56,142.18,160.01,136.19,164.27,133.73z"/>
			<path id="XMLID_1365_" class="st8" d="M179.48,160.05c0-8.08-5.68-11.67-12.68-7.63l-4.38,2.53c-7,4.04-12.68,13.87-12.68,21.96
				v2.18l29.73-17.15V160.05z"/>
		</g>
		<g id="XMLID_1380_">
			<path id="XMLID_1396_" class="st8" d="M194.51,164.04c-0.28-0.65-1-0.82-1.81-0.35l-51.92,29.96c-0.52,0.3-1.01,0.82-1.36,1.43
				c-0.35,0.6-0.56,1.28-0.56,1.89v6.11c0,1.04,0.62,1.55,1.46,1.31c0.09-0.03,0.14-0.04,0.14-0.04c0.11-0.04,0.22-0.1,0.32-0.16
				l51.92-29.96c1.06-0.61,1.92-2.1,1.92-3.33v-6.11C194.62,164.56,194.59,164.25,194.51,164.04z"/>
			<g id="XMLID_1381_">
				<path id="XMLID_1393_" class="st3" d="M145.47,194.41c1.01-0.58,1.82-0.11,1.82,1.05s-0.82,2.58-1.82,3.16s-1.82,0.11-1.82-1.05
					S144.47,194.99,145.47,194.41z"/>
				<path id="XMLID_1392_" class="st3" d="M151.51,190.92c1.01-0.58,1.82-0.11,1.82,1.05c0,1.16-0.82,2.58-1.82,3.16
					c-1.01,0.58-1.82,0.11-1.82-1.05S150.5,191.5,151.51,190.92z"/>
				<path id="XMLID_1391_" class="st3" d="M157.54,187.44c1.01-0.58,1.82-0.11,1.82,1.05s-0.82,2.58-1.82,3.16s-1.82,0.11-1.82-1.05
					S156.53,188.02,157.54,187.44z"/>
				<path id="XMLID_1389_" class="st3" d="M163.57,183.96c1.01-0.58,1.82-0.11,1.82,1.05s-0.82,2.58-1.82,3.16s-1.82,0.11-1.82-1.05
					S162.56,184.54,163.57,183.96z"/>
				<path id="XMLID_1385_" class="st3" d="M169.6,180.47c1.01-0.58,1.82-0.11,1.82,1.05s-0.82,2.58-1.82,3.16
					c-1.01,0.58-1.82,0.11-1.82-1.05S168.6,181.05,169.6,180.47z"/>
				<path id="XMLID_1384_" class="st3" d="M175.64,176.99c1.01-0.58,1.82-0.11,1.82,1.05s-0.82,2.58-1.82,3.16s-1.82,0.11-1.82-1.05
					S174.63,177.57,175.64,176.99z"/>
				<path id="XMLID_1383_" class="st3" d="M181.67,173.51c1.01-0.58,1.82-0.11,1.82,1.05s-0.82,2.58-1.82,3.16
					c-1.01,0.58-1.82,0.11-1.82-1.05S180.66,174.09,181.67,173.51z"/>
				<path id="XMLID_1382_" class="st3" d="M187.7,170.02c1.01-0.58,1.82-0.11,1.82,1.05c0,1.16-0.82,2.58-1.82,3.16
					c-1.01,0.58-1.82,0.11-1.82-1.05C185.88,172.02,186.7,170.61,187.7,170.02z"/>
			</g>
		</g>
		<path id="XMLID_30710_" class="st5" d="M96.34,289.66l154.09-88.96c1.2-0.69,3.13-0.69,4.33,0l7.88,4.55c1.2,0.69,1.2,1.81,0,2.5
			L108.53,296.7c-1.2,0.69-3.13,0.69-4.33,0l-7.86-4.54C95.15,291.47,95.15,290.35,96.34,289.66z"/>
		<path id="XMLID_30704_" class="st6" d="M116.65,301.39l154.09-88.96c1.2-0.69,3.13-0.69,4.33,0l48.48,27.99
			c1.2,0.69,1.2,1.81,0,2.5l-153.91,88.84c-1.2,0.69-3.14,0.69-4.33,0.01l-48.64-27.88C115.46,303.19,115.46,302.08,116.65,301.39z"
			/>
		<path id="XMLID_172_" class="st7" d="M254.78,252.45l4.82-2.79c0.21-0.12,0.19-0.32-0.03-0.44L254,246
			c-0.22-0.13-0.56-0.13-0.77-0.02l-4.82,2.79c-0.21,0.12-0.19,0.32,0.03,0.44l5.58,3.22C254.23,252.56,254.58,252.57,254.78,252.45
			z M245.26,241.38l-4.82,2.79c-0.2,0.12-0.19,0.32,0.03,0.44l5.58,3.22c0.22,0.13,0.56,0.13,0.77,0.02l4.82-2.79
			c0.21-0.12,0.19-0.32-0.03-0.44l-5.58-3.22C245.81,241.27,245.46,241.26,245.26,241.38z M229.67,250.38l-8.16,4.71
			c-0.2,0.12-0.19,0.32,0.03,0.44l5.58,3.22c0.22,0.13,0.56,0.13,0.77,0.02l8.16-4.71c0.21-0.12,0.19-0.32-0.03-0.44l-5.58-3.22
			C230.22,250.27,229.88,250.26,229.67,250.38z M238.21,245.45l-4.82,2.79c-0.2,0.12-0.19,0.32,0.03,0.44l5.58,3.22
			c0.22,0.13,0.56,0.13,0.77,0.02l4.82-2.79c0.21-0.12,0.19-0.32-0.03-0.44l-5.58-3.22C238.76,245.34,238.41,245.33,238.21,245.45z
			 M219.28,256.38l-4.82,2.79c-0.21,0.12-0.19,0.32,0.03,0.44l5.58,3.22c0.22,0.13,0.56,0.13,0.77,0.02l4.82-2.79
			c0.2-0.12,0.19-0.32-0.03-0.44l-5.58-3.22C219.83,256.27,219.49,256.26,219.28,256.38z M212.23,260.45l-4.82,2.79
			c-0.21,0.12-0.19,0.32,0.03,0.44l5.58,3.22c0.22,0.13,0.56,0.13,0.77,0.02l4.82-2.79c0.21-0.12,0.19-0.32-0.03-0.44l-5.58-3.22
			C212.78,260.34,212.44,260.33,212.23,260.45z M234.17,273.55l4.82-2.79c0.2-0.12,0.19-0.32-0.03-0.44l-5.58-3.22
			c-0.22-0.13-0.57-0.13-0.77-0.02l-4.82,2.79c-0.21,0.12-0.19,0.32,0.03,0.44l5.58,3.22C233.62,273.66,233.97,273.67,234.17,273.55
			z M227.12,277.62l4.82-2.79c0.21-0.12,0.19-0.32-0.03-0.44l-5.58-3.22c-0.22-0.13-0.56-0.13-0.77-0.02l-4.82,2.79
			c-0.21,0.12-0.19,0.32,0.03,0.44l5.58,3.22C226.57,277.73,226.92,277.74,227.12,277.62z M220.07,281.69l4.82-2.79
			c0.21-0.12,0.19-0.32-0.03-0.44l-5.58-3.22c-0.22-0.13-0.56-0.13-0.77-0.02l-4.82,2.79c-0.21,0.12-0.19,0.32,0.03,0.44l5.58,3.22
			C219.52,281.8,219.87,281.81,220.07,281.69z M213.02,285.76l4.82-2.79c0.21-0.12,0.19-0.32-0.03-0.44l-5.58-3.22
			c-0.22-0.13-0.56-0.13-0.77-0.02l-4.82,2.79c-0.21,0.12-0.19,0.32,0.03,0.44l5.58,3.22C212.47,285.87,212.82,285.88,213.02,285.76
			z M247.73,256.52l4.82-2.79c0.2-0.12,0.19-0.32-0.03-0.44l-5.58-3.22c-0.22-0.13-0.56-0.13-0.77-0.02l-4.82,2.79
			c-0.21,0.12-0.19,0.32,0.03,0.44l5.58,3.22C247.18,256.63,247.52,256.64,247.73,256.52z M241.23,269.48l10.76-6.21
			c0.2-0.12,0.19-0.32-0.03-0.44L238.41,255c-0.22-0.13-0.56-0.13-0.77-0.02l-5.57,3.21c-0.21,0.12-0.19,0.32,0.03,0.44l7.17,4.14
			c0.22,0.13,0.23,0.33,0.03,0.44l-4.45,2.57c-0.21,0.12-0.19,0.32,0.03,0.44l5.58,3.22C240.68,269.59,241.02,269.59,241.23,269.48z
			 M205.18,264.52l-4.82,2.79c-0.2,0.12-0.19,0.32,0.03,0.44l5.58,3.22c0.22,0.13,0.56,0.13,0.77,0.02l4.82-2.79
			c0.2-0.12,0.19-0.32-0.03-0.44l-5.58-3.22C205.73,264.41,205.38,264.4,205.18,264.52z M198.13,268.59l-4.82,2.79
			c-0.21,0.12-0.19,0.32,0.03,0.44l5.58,3.22c0.22,0.13,0.56,0.13,0.77,0.02l4.82-2.79c0.21-0.12,0.19-0.32-0.03-0.44l-5.58-3.22
			C198.68,268.48,198.33,268.47,198.13,268.59z M162.89,314.24c0.22,0.13,0.56,0.13,0.77,0.02l4.82-2.79
			c0.2-0.12,0.19-0.32-0.03-0.44l-5.58-3.22c-0.22-0.13-0.57-0.13-0.77-0.02l-4.82,2.79c-0.21,0.12-0.19,0.32,0.03,0.44
			L162.89,314.24z M141.72,301.16l-4.82,2.79c-0.21,0.12-0.19,0.32,0.03,0.44l5.58,3.22c0.22,0.13,0.56,0.13,0.77,0.02l4.82-2.79
			c0.2-0.12,0.19-0.32-0.03-0.44l-5.58-3.22C142.27,301.05,141.92,301.04,141.72,301.16z M153.07,310.71
			c0.22,0.13,0.56,0.13,0.77,0.02l4.82-2.79c0.2-0.12,0.19-0.32-0.03-0.44l-5.58-3.22c-0.22-0.13-0.56-0.13-0.77-0.02l-4.82,2.79
			c-0.21,0.12-0.19,0.32,0.03,0.44L153.07,310.71z M175.34,316.72l4.82-2.79c0.21-0.12,0.19-0.32-0.03-0.44l-5.58-3.22
			c-0.22-0.13-0.56-0.13-0.77-0.02l-4.82,2.79c-0.2,0.12-0.19,0.32,0.03,0.44l5.58,3.22C174.79,316.83,175.14,316.83,175.34,316.72z
			 M167.52,320.77c0.22,0.13,0.56,0.13,0.77,0.02l4.82-2.79c0.2-0.12,0.19-0.32-0.03-0.44l-5.58-3.22
			c-0.22-0.13-0.56-0.13-0.77-0.02l-4.82,2.79c-0.2,0.12-0.19,0.32,0.03,0.44L167.52,320.77z M148.77,297.09l-4.82,2.79
			c-0.21,0.12-0.19,0.32,0.03,0.44l5.58,3.22c0.22,0.13,0.56,0.13,0.77,0.02l4.82-2.79c0.21-0.12,0.19-0.32-0.03-0.44l-5.58-3.22
			C149.32,296.98,148.97,296.97,148.77,297.09z M184.03,276.73l-4.82,2.79c-0.2,0.12-0.19,0.32,0.03,0.44l5.58,3.22
			c0.22,0.13,0.56,0.13,0.77,0.02l4.82-2.79c0.2-0.12,0.19-0.32-0.03-0.44l-5.58-3.22C184.57,276.62,184.23,276.62,184.03,276.73z
			 M155.82,293.02L151,295.8c-0.21,0.12-0.19,0.32,0.03,0.44l5.58,3.22c0.22,0.13,0.56,0.13,0.77,0.02l4.82-2.79
			c0.21-0.12,0.19-0.32-0.03-0.44l-5.58-3.22C156.37,292.91,156.03,292.9,155.82,293.02z M191.08,272.66l-4.82,2.79
			c-0.21,0.12-0.19,0.32,0.03,0.44l5.58,3.22c0.22,0.13,0.56,0.13,0.77,0.02l4.82-2.79c0.21-0.12,0.19-0.32-0.03-0.44l-5.58-3.22
			C191.63,272.55,191.28,272.54,191.08,272.66z M176.97,280.8l-4.82,2.79c-0.21,0.12-0.19,0.32,0.03,0.44l5.58,3.22
			c0.22,0.13,0.56,0.13,0.77,0.02l4.82-2.79c0.21-0.12,0.19-0.32-0.03-0.44l-5.58-3.22C177.52,280.69,177.18,280.69,176.97,280.8z
			 M169.92,284.88l-4.82,2.79c-0.21,0.12-0.19,0.32,0.03,0.44l5.58,3.22c0.22,0.13,0.56,0.13,0.77,0.02l4.82-2.79
			c0.2-0.12,0.19-0.32-0.03-0.44l-5.58-3.22C170.47,284.76,170.13,284.76,169.92,284.88z M162.87,288.95l-4.82,2.79
			c-0.21,0.12-0.19,0.32,0.03,0.44l5.58,3.22c0.22,0.13,0.56,0.13,0.77,0.02l4.82-2.79c0.2-0.12,0.19-0.32-0.03-0.44l-5.58-3.22
			C163.42,288.84,163.08,288.83,162.87,288.95z M198.92,293.9l4.82-2.79c0.21-0.12,0.19-0.32-0.03-0.44l-5.58-3.22
			c-0.22-0.13-0.56-0.13-0.77-0.02l-4.82,2.79c-0.21,0.12-0.19,0.32,0.03,0.44l5.58,3.22C198.37,294.01,198.71,294.02,198.92,293.9z
			 M260.85,232.38l-4.82,2.79c-0.21,0.12-0.19,0.32,0.03,0.44l5.58,3.22c0.22,0.13,0.56,0.13,0.77,0.02l4.82-2.79
			c0.21-0.12,0.19-0.32-0.03-0.44l-5.58-3.22C261.4,232.27,261.05,232.26,260.85,232.38z M252.31,237.31l-4.82,2.79
			c-0.21,0.12-0.19,0.32,0.03,0.44l5.58,3.22c0.22,0.13,0.56,0.13,0.77,0.02l4.82-2.79c0.2-0.12,0.19-0.32-0.03-0.44l-5.58-3.22
			C252.86,237.2,252.52,237.19,252.31,237.31z M267.9,228.31l-4.82,2.79c-0.2,0.12-0.19,0.32,0.03,0.44l5.58,3.22
			c0.22,0.13,0.56,0.13,0.77,0.02l4.82-2.79c0.2-0.12,0.19-0.32-0.03-0.44l-5.58-3.22C268.45,228.2,268.1,228.19,267.9,228.31z
			 M231.4,265.95l4.82-2.79c0.21-0.12,0.19-0.32-0.03-0.44l-5.58-3.22c-0.22-0.13-0.56-0.13-0.77-0.02l-4.82,2.79
			c-0.21,0.12-0.19,0.32,0.03,0.44l5.58,3.22C230.85,266.06,231.2,266.06,231.4,265.95z M275.72,224.25
			c-0.22-0.13-0.56-0.13-0.77-0.02l-4.82,2.79c-0.2,0.12-0.19,0.32,0.03,0.44l5.58,3.22c0.22,0.13,0.56,0.13,0.77,0.02l4.82-2.79
			c0.21-0.12,0.19-0.32-0.03-0.44L275.72,224.25z M205.97,289.83l4.82-2.79c0.21-0.12,0.19-0.32-0.03-0.44l-5.58-3.22
			c-0.22-0.13-0.56-0.13-0.77-0.02l-4.82,2.79c-0.21,0.12-0.19,0.32,0.03,0.44l5.58,3.22C205.42,289.94,205.76,289.95,205.97,289.83
			z M292.44,239.91l4.82-2.79c0.21-0.12,0.19-0.32-0.03-0.44l-5.58-3.22c-0.22-0.13-0.56-0.13-0.77-0.02l-4.82,2.79
			c-0.2,0.12-0.19,0.32,0.03,0.44l5.58,3.22C291.89,240.02,292.24,240.03,292.44,239.91z M277.42,239.38l4.82-2.79
			c0.2-0.12,0.19-0.32-0.03-0.44l-5.58-3.22c-0.22-0.13-0.56-0.13-0.77-0.02l-4.82,2.79c-0.21,0.12-0.19,0.32,0.03,0.44l5.58,3.22
			C276.87,239.49,277.21,239.5,277.42,239.38z M283.69,228.85c-0.22-0.13-0.56-0.13-0.77-0.02l-4.82,2.79
			c-0.2,0.12-0.19,0.32,0.03,0.44l5.58,3.22c0.22,0.13,0.56,0.13,0.77,0.02l4.82-2.79c0.2-0.12,0.19-0.32-0.03-0.44L283.69,228.85z
			 M285.17,228l13.55,7.82c0.22,0.13,0.56,0.13,0.77,0.02l4.82-2.79c0.21-0.12,0.19-0.32-0.03-0.44l-13.55-7.82
			c-0.22-0.13-0.56-0.13-0.77-0.02l-4.82,2.79C284.94,227.67,284.95,227.87,285.17,228z M268.82,236.98l-4.82,2.79
			c-0.21,0.12-0.19,0.32,0.03,0.44l5.58,3.22c0.22,0.13,0.56,0.13,0.77,0.02l4.82-2.79c0.2-0.12,0.19-0.32-0.03-0.44l-5.58-3.22
			C269.37,236.87,269.02,236.86,268.82,236.98z M215.75,267.62l-4.82,2.79c-0.21,0.12-0.19,0.32,0.03,0.44l5.58,3.22
			c0.22,0.13,0.56,0.13,0.77,0.02l4.82-2.79c0.21-0.12,0.19-0.32-0.03-0.44l-5.58-3.22C216.3,267.51,215.95,267.5,215.75,267.62z
			 M284.62,243.96c0.22,0.13,0.56,0.13,0.77,0.02l4.82-2.79c0.2-0.12,0.19-0.32-0.03-0.44l-5.58-3.22
			c-0.22-0.13-0.56-0.13-0.77-0.02l-4.82,2.79c-0.21,0.12-0.19,0.32,0.03,0.44L284.62,243.96z M222.8,263.55l-4.82,2.79
			c-0.21,0.12-0.19,0.32,0.03,0.44l5.58,3.22c0.22,0.13,0.56,0.13,0.77,0.02l4.82-2.79c0.21-0.12,0.19-0.32-0.03-0.44l-5.58-3.22
			C223.35,263.44,223,263.43,222.8,263.55z M169.94,310.17c0.22,0.13,0.56,0.13,0.77,0.02l4.82-2.79c0.2-0.12,0.19-0.32-0.03-0.44
			l-5.58-3.22c-0.22-0.13-0.56-0.13-0.77-0.02l-4.82,2.79c-0.21,0.12-0.19,0.32,0.03,0.44L169.94,310.17z M159.34,300.19l-4.82,2.79
			c-0.2,0.12-0.19,0.32,0.03,0.44l5.58,3.22c0.22,0.13,0.56,0.13,0.77,0.02l4.82-2.79c0.21-0.12,0.19-0.32-0.03-0.44l-5.58-3.22
			C159.89,300.08,159.54,300.07,159.34,300.19z M177.76,306.12l4.82-2.79c0.21-0.12,0.19-0.32-0.03-0.44l-5.58-3.22
			c-0.22-0.13-0.56-0.13-0.77-0.02l-4.82,2.79c-0.2,0.12-0.19,0.32,0.03,0.44l5.58,3.22C177.21,306.23,177.56,306.23,177.76,306.12z
			 M184.82,302.04l4.82-2.79c0.21-0.12,0.19-0.32-0.03-0.44l-5.58-3.22c-0.22-0.13-0.56-0.13-0.77-0.02l-4.82,2.79
			c-0.2,0.12-0.19,0.32,0.03,0.44l5.58,3.22C184.27,302.16,184.61,302.16,184.82,302.04z M191.87,297.97l4.82-2.79
			c0.2-0.12,0.19-0.32-0.03-0.44l-5.58-3.22c-0.22-0.13-0.56-0.13-0.77-0.02l-4.82,2.79c-0.21,0.12-0.19,0.32,0.03,0.44l5.58,3.22
			C191.32,298.08,191.66,298.09,191.87,297.97z M166.39,296.12l-4.82,2.79c-0.21,0.12-0.19,0.32,0.03,0.44l5.58,3.22
			c0.22,0.13,0.56,0.13,0.77,0.02l4.82-2.79c0.21-0.12,0.19-0.32-0.03-0.44l-5.58-3.22C166.94,296.01,166.59,296,166.39,296.12z
			 M173.44,292.05l-4.82,2.79c-0.21,0.12-0.19,0.32,0.03,0.44l5.58,3.22c0.22,0.13,0.56,0.13,0.77,0.02l4.82-2.79
			c0.2-0.12,0.19-0.32-0.03-0.44l-5.58-3.22C173.99,291.94,173.64,291.93,173.44,292.05z M201.64,275.76l-4.82,2.79
			c-0.21,0.12-0.19,0.32,0.03,0.44l5.58,3.22c0.22,0.13,0.56,0.13,0.77,0.02l4.82-2.79c0.21-0.12,0.19-0.32-0.03-0.44l-5.58-3.22
			C202.19,275.65,201.85,275.65,201.64,275.76z M194.59,279.83l-4.82,2.79c-0.2,0.12-0.19,0.32,0.03,0.44l5.58,3.22
			c0.22,0.13,0.57,0.13,0.77,0.02l4.82-2.79c0.2-0.12,0.19-0.32-0.03-0.44l-5.58-3.22C195.14,279.72,194.8,279.72,194.59,279.83z
			 M208.7,271.69l-4.82,2.79c-0.21,0.12-0.19,0.32,0.03,0.44l5.58,3.22c0.22,0.13,0.56,0.13,0.77,0.02l4.82-2.79
			c0.21-0.12,0.19-0.32-0.03-0.44l-5.58-3.22C209.24,271.58,208.9,271.57,208.7,271.69z M180.49,287.98l-4.82,2.79
			c-0.21,0.12-0.19,0.32,0.03,0.44l5.58,3.22c0.22,0.13,0.56,0.13,0.77,0.02l4.82-2.79c0.2-0.12,0.19-0.32-0.03-0.44l-5.58-3.22
			C181.04,287.87,180.69,287.86,180.49,287.98z M187.54,283.91l-4.82,2.79c-0.2,0.12-0.19,0.32,0.03,0.44l5.58,3.22
			c0.22,0.13,0.56,0.13,0.77,0.02l4.82-2.79c0.21-0.12,0.19-0.32-0.03-0.44l-5.58-3.22C188.09,283.79,187.75,283.79,187.54,283.91z
			 M182.39,312.65l4.82-2.79c0.21-0.12,0.19-0.32-0.03-0.44l-5.58-3.22c-0.22-0.13-0.56-0.13-0.77-0.02l-4.82,2.79
			c-0.21,0.12-0.19,0.32,0.03,0.44l5.58,3.22C181.84,312.76,182.19,312.76,182.39,312.65z M141.01,308.47l-5.58-3.22
			c-0.22-0.13-0.56-0.13-0.77-0.02l-4.82,2.79c-0.21,0.12-0.19,0.32,0.03,0.44l5.58,3.22c0.22,0.13,0.56,0.13,0.77,0.02l4.82-2.79
			C141.25,308.79,141.23,308.59,141.01,308.47z M151.58,311.57l-5.58-3.22c-0.22-0.13-0.56-0.13-0.77-0.02l-7.42,4.29
			c-0.21,0.12-0.19,0.32,0.03,0.44l5.58,3.22c0.22,0.13,0.56,0.13,0.77,0.02l7.42-4.29C151.81,311.89,151.8,311.7,151.58,311.57z
			 M132.46,302.24l-5.58-3.22c-0.22-0.13-0.56-0.13-0.77-0.02l-5.94,3.43c-0.2,0.12-0.19,0.32,0.03,0.44l5.58,3.22
			c0.22,0.13,0.57,0.13,0.77,0.02l5.94-3.43C132.69,302.57,132.68,302.37,132.46,302.24z M137.01,299.61
			c0.22,0.13,0.56,0.13,0.77,0.02l4.82-2.79c0.21-0.12,0.19-0.32-0.03-0.44l-5.58-3.22c-0.22-0.13-0.56-0.13-0.77-0.02l-4.82,2.79
			c-0.21,0.12-0.19,0.32,0.03,0.44L137.01,299.61z M161.41,315.1l-5.58-3.22c-0.22-0.13-0.56-0.13-0.77-0.02l-9.28,5.36
			c-0.2,0.12-0.19,0.32,0.03,0.44l5.58,3.22c0.22,0.13,0.56,0.13,0.77,0.02l9.28-5.36C161.64,315.42,161.63,315.23,161.41,315.1z
			 M166.04,321.63l-5.58-3.22c-0.22-0.13-0.56-0.13-0.77-0.02l-5.94,3.43c-0.21,0.12-0.19,0.32,0.03,0.44l5.58,3.22
			c0.22,0.13,0.56,0.13,0.77,0.02l5.94-3.43C166.27,321.95,166.26,321.76,166.04,321.63z M189.43,269.34
			c0.22,0.13,0.56,0.13,0.77,0.02l4.82-2.79c0.21-0.12,0.19-0.32-0.03-0.44l-5.58-3.22c-0.22-0.13-0.57-0.13-0.77-0.02l-4.82,2.79
			c-0.21,0.12-0.19,0.32,0.03,0.44L189.43,269.34z M175.33,277.49c0.22,0.13,0.56,0.13,0.77,0.02l4.82-2.79
			c0.21-0.12,0.19-0.32-0.03-0.44l-5.58-3.22c-0.22-0.13-0.56-0.13-0.77-0.02l-4.82,2.79c-0.21,0.12-0.19,0.32,0.03,0.44
			L175.33,277.49z M144.06,295.54c0.22,0.13,0.57,0.13,0.77,0.02l4.82-2.79c0.2-0.12,0.19-0.32-0.03-0.44l-5.58-3.22
			c-0.22-0.13-0.56-0.13-0.77-0.02l-4.82,2.79c-0.2,0.12-0.19,0.32,0.03,0.44L144.06,295.54z M182.38,273.41
			c0.22,0.13,0.56,0.13,0.77,0.02l4.82-2.79c0.2-0.12,0.19-0.32-0.03-0.44l-5.58-3.22c-0.22-0.13-0.56-0.13-0.77-0.02l-4.82,2.79
			c-0.21,0.12-0.19,0.32,0.03,0.44L182.38,273.41z M168.28,281.56c0.22,0.13,0.56,0.13,0.77,0.02l4.82-2.79
			c0.21-0.12,0.19-0.32-0.03-0.44l-5.58-3.22c-0.22-0.13-0.56-0.13-0.77-0.02l-4.82,2.79c-0.21,0.12-0.19,0.32,0.03,0.44
			L168.28,281.56z M169.91,322.15c-0.22-0.13-0.56-0.13-0.77-0.02l-7.42,4.29c-0.21,0.12-0.19,0.32,0.03,0.44l5.58,3.22
			c0.22,0.13,0.56,0.13,0.77,0.02l7.42-4.29c0.21-0.12,0.19-0.32-0.03-0.44L169.91,322.15z M158.16,287.4
			c0.22,0.13,0.56,0.13,0.77,0.02l4.82-2.79c0.21-0.12,0.19-0.32-0.03-0.44l-5.58-3.22c-0.22-0.13-0.56-0.13-0.77-0.02l-4.82,2.79
			c-0.21,0.12-0.19,0.32,0.03,0.44L158.16,287.4z M151.11,291.47c0.22,0.13,0.56,0.13,0.77,0.02l4.82-2.79
			c0.21-0.12,0.19-0.32-0.03-0.44l-5.58-3.22c-0.22-0.13-0.56-0.13-0.77-0.02l-4.82,2.79c-0.2,0.12-0.19,0.32,0.03,0.44
			L151.11,291.47z M300.55,246.73c-0.22-0.13-0.56-0.13-0.77-0.02l-11.88,6.86c-0.21,0.12-0.19,0.32,0.03,0.44l5.58,3.22
			c0.22,0.13,0.56,0.13,0.77,0.02l11.88-6.86c0.2-0.12,0.19-0.32-0.03-0.44L300.55,246.73z M284.96,255.73
			c-0.22-0.13-0.56-0.13-0.77-0.02l-4.82,2.79c-0.21,0.12-0.19,0.32,0.03,0.44l5.58,3.22c0.22,0.13,0.56,0.13,0.77,0.02l4.82-2.79
			c0.21-0.12,0.19-0.32-0.03-0.44L284.96,255.73z M189.44,308.57l4.82-2.79c0.2-0.12,0.19-0.32-0.03-0.44l-5.58-3.22
			c-0.22-0.13-0.56-0.13-0.77-0.02l-4.82,2.79c-0.21,0.12-0.19,0.32,0.03,0.44l5.58,3.22C188.9,308.69,189.24,308.69,189.44,308.57z
			 M270.86,263.87c-0.22-0.13-0.56-0.13-0.77-0.02l-4.82,2.79c-0.2,0.12-0.19,0.32,0.03,0.44l5.58,3.22
			c0.22,0.13,0.56,0.13,0.77,0.02l4.82-2.79c0.21-0.12,0.19-0.32-0.03-0.44L270.86,263.87z M307.6,242.66
			c-0.22-0.13-0.56-0.13-0.77-0.02l-4.82,2.79c-0.2,0.12-0.19,0.32,0.03,0.44l5.58,3.22c0.22,0.13,0.56,0.13,0.77,0.02l4.82-2.79
			c0.21-0.12,0.19-0.32-0.03-0.44L307.6,242.66z M320.23,241.81l-13.55-7.82c-0.22-0.13-0.56-0.13-0.77-0.02l-4.82,2.79
			c-0.21,0.12-0.19,0.32,0.03,0.44l13.55,7.82c0.22,0.13,0.56,0.13,0.77,0.02l4.82-2.79C320.46,242.13,320.45,241.94,320.23,241.81z
			 M244.51,279.08c-0.22-0.13-0.56-0.13-0.77-0.02l-5.94,3.43c-0.21,0.12-0.19,0.32,0.03,0.44l5.58,3.22
			c0.22,0.13,0.56,0.13,0.77,0.02l5.94-3.43c0.21-0.12,0.19-0.32-0.03-0.44L244.51,279.08z M262.32,268.8
			c-0.22-0.13-0.56-0.13-0.77-0.02l-7.42,4.29c-0.2,0.12-0.19,0.32,0.03,0.44l5.58,3.22c0.22,0.13,0.56,0.13,0.77,0.02l7.42-4.29
			c0.21-0.12,0.19-0.32-0.03-0.44L262.32,268.8z M228.18,288.51c-0.22-0.13-0.56-0.13-0.77-0.02l-39.71,22.93
			c-0.21,0.12-0.19,0.32,0.03,0.44l5.58,3.22c0.22,0.13,0.56,0.13,0.77,0.02l39.71-22.93c0.21-0.12,0.19-0.32-0.03-0.44
			L228.18,288.51z M186.24,312.72c-0.22-0.13-0.57-0.13-0.77-0.02l-5.94,3.43c-0.21,0.12-0.19,0.32,0.03,0.44l5.58,3.22
			c0.22,0.13,0.56,0.13,0.77,0.02l5.94-3.43c0.2-0.12,0.19-0.32-0.03-0.44L186.24,312.72z M236.34,283.8
			c-0.22-0.13-0.56-0.13-0.77-0.02l-5.94,3.43c-0.21,0.12-0.19,0.32,0.03,0.44l5.58,3.22c0.22,0.13,0.56,0.13,0.77,0.02l5.94-3.43
			c0.21-0.12,0.19-0.32-0.03-0.44L236.34,283.8z M178.08,317.44c-0.22-0.13-0.56-0.13-0.77-0.02l-5.94,3.43
			c-0.2,0.12-0.19,0.32,0.03,0.44l5.58,3.22c0.22,0.13,0.56,0.13,0.77,0.02l5.94-3.43c0.2-0.12,0.19-0.32-0.03-0.44L178.08,317.44z
			 M252.67,274.37c-0.22-0.13-0.56-0.13-0.77-0.02l-5.94,3.43c-0.2,0.12-0.19,0.32,0.03,0.44l5.58,3.22
			c0.22,0.13,0.56,0.13,0.77,0.02l5.94-3.43c0.21-0.12,0.19-0.32-0.03-0.44L252.67,274.37z M277.91,259.8
			c-0.22-0.13-0.56-0.13-0.77-0.02l-4.82,2.79c-0.21,0.12-0.19,0.32,0.03,0.44l5.58,3.22c0.22,0.13,0.56,0.13,0.77,0.02l4.82-2.79
			c0.21-0.12,0.19-0.32-0.03-0.44L277.91,259.8z M293.36,248.58l4.82-2.79c0.21-0.12,0.19-0.32-0.03-0.44l-5.58-3.22
			c-0.22-0.13-0.56-0.13-0.77-0.02l-4.82,2.79c-0.2,0.12-0.19,0.32,0.03,0.44l5.58,3.22C292.81,248.69,293.15,248.7,293.36,248.58z
			 M261.83,248.38l4.82-2.79c0.21-0.12,0.19-0.32-0.03-0.44l-5.58-3.22c-0.22-0.13-0.56-0.13-0.77-0.02l-4.82,2.79
			c-0.21,0.12-0.19,0.32,0.03,0.44l5.58,3.22C261.28,248.49,261.63,248.49,261.83,248.38z M245.86,276.01l14.1-8.14
			c0.21-0.12,0.19-0.32-0.03-0.44l-5.58-3.22c-0.22-0.13-0.56-0.13-0.77-0.02l-14.1,8.14c-0.21,0.12-0.19,0.32,0.03,0.44l5.58,3.22
			C245.31,276.12,245.65,276.12,245.86,276.01z M285.54,252.63c0.22,0.13,0.56,0.13,0.77,0.02l4.82-2.79
			c0.21-0.12,0.19-0.32-0.03-0.44l-5.58-3.22c-0.22-0.13-0.56-0.13-0.77-0.02l-4.82,2.79c-0.2,0.12-0.19,0.32,0.03,0.44
			L285.54,252.63z M278.34,248.05l4.82-2.79c0.2-0.12,0.19-0.32-0.03-0.44l-5.58-3.22c-0.22-0.13-0.57-0.13-0.77-0.02l-4.82,2.79
			c-0.21,0.12-0.19,0.32,0.03,0.44l5.58,3.22C277.79,248.16,278.13,248.17,278.34,248.05z M238.8,280.08l4.82-2.79
			c0.21-0.12,0.19-0.32-0.03-0.44l-5.58-3.22c-0.22-0.13-0.56-0.13-0.77-0.02l-4.82,2.79c-0.21,0.12-0.19,0.32,0.03,0.44l5.58,3.22
			C238.25,280.19,238.6,280.19,238.8,280.08z M269.95,261.63c0.22,0.13,0.56,0.13,0.77,0.02l4.82-2.79
			c0.21-0.12,0.19-0.32-0.03-0.44l-5.58-3.22c-0.22-0.13-0.56-0.13-0.77-0.02l-4.82,2.79c-0.21,0.12-0.19,0.32,0.03,0.44
			L269.95,261.63z M203.55,300.43l4.82-2.79c0.2-0.12,0.19-0.32-0.03-0.44l-5.58-3.22c-0.22-0.13-0.56-0.13-0.77-0.02l-4.82,2.79
			c-0.21,0.12-0.19,0.32,0.03,0.44l5.58,3.22C203,300.54,203.34,300.55,203.55,300.43z M210.6,296.36l4.82-2.79
			c0.2-0.12,0.19-0.32-0.03-0.44l-5.58-3.22c-0.22-0.13-0.56-0.13-0.77-0.02l-4.82,2.79c-0.21,0.12-0.19,0.32,0.03,0.44l5.58,3.22
			C210.05,296.47,210.39,296.48,210.6,296.36z M196.5,304.5l4.82-2.79c0.21-0.12,0.19-0.32-0.03-0.44l-5.58-3.22
			c-0.22-0.13-0.56-0.13-0.77-0.02l-4.82,2.79c-0.21,0.12-0.19,0.32,0.03,0.44l5.58,3.22C195.95,304.61,196.29,304.62,196.5,304.5z
			 M224.7,288.22l4.82-2.79c0.21-0.12,0.19-0.32-0.03-0.44l-5.58-3.22c-0.22-0.13-0.56-0.13-0.77-0.02l-4.82,2.79
			c-0.2,0.12-0.19,0.32,0.03,0.44l5.58,3.22C224.15,288.33,224.5,288.34,224.7,288.22z M217.65,292.29l4.82-2.79
			c0.21-0.12,0.19-0.32-0.03-0.44l-5.58-3.22c-0.22-0.13-0.56-0.13-0.77-0.02l-4.82,2.79c-0.2,0.12-0.19,0.32,0.03,0.44l5.58,3.22
			C217.1,292.4,217.45,292.41,217.65,292.29z M231.75,284.15l4.82-2.79c0.2-0.12,0.19-0.32-0.03-0.44l-5.58-3.22
			c-0.22-0.13-0.56-0.13-0.77-0.02l-4.82,2.79c-0.2,0.12-0.19,0.32,0.03,0.44l5.58,3.22C231.2,284.26,231.55,284.27,231.75,284.15z
			 M264.01,223.92c0.22,0.13,0.56,0.13,0.77,0.02l4.82-2.79c0.21-0.12,0.19-0.32-0.03-0.44l-1.48-0.86
			c-0.22-0.13-0.56-0.13-0.77-0.02l-4.82,2.79c-0.2,0.12-0.19,0.32,0.03,0.44L264.01,223.92z M229.32,246.32
			c0.22,0.13,0.56,0.13,0.77,0.02l4.82-2.79c0.2-0.12,0.19-0.32-0.03-0.44l-5.58-3.22c-0.22-0.13-0.57-0.13-0.77-0.02l-4.82,2.79
			c-0.21,0.12-0.19,0.32,0.03,0.44L229.32,246.32z M243.42,238.17c0.22,0.13,0.56,0.13,0.77,0.02l4.82-2.79
			c0.21-0.12,0.19-0.32-0.03-0.44l-5.58-3.22c-0.22-0.13-0.56-0.13-0.77-0.02l-4.82,2.79c-0.2,0.12-0.19,0.32,0.03,0.44
			L243.42,238.17z M220.71,251.29c0.22,0.13,0.56,0.13,0.77,0.02l4.82-2.79c0.2-0.12,0.19-0.32-0.03-0.44l-5.58-3.22
			c-0.22-0.13-0.56-0.13-0.77-0.02l-4.82,2.79c-0.21,0.12-0.19,0.32,0.03,0.44L220.71,251.29z M236.37,242.25
			c0.22,0.13,0.56,0.13,0.77,0.02l4.82-2.79c0.2-0.12,0.19-0.32-0.03-0.44l-5.58-3.22c-0.22-0.13-0.56-0.13-0.77-0.02l-4.82,2.79
			c-0.21,0.12-0.19,0.32,0.03,0.44L236.37,242.25z M206.61,259.43c0.22,0.13,0.56,0.13,0.77,0.02l4.82-2.79
			c0.21-0.12,0.19-0.32-0.03-0.44l-5.58-3.22c-0.22-0.13-0.56-0.13-0.77-0.02l-4.82,2.79c-0.21,0.12-0.19,0.32,0.03,0.44
			L206.61,259.43z M213.66,255.36c0.22,0.13,0.56,0.13,0.77,0.02l4.82-2.79c0.21-0.12,0.19-0.32-0.03-0.44l-5.58-3.22
			c-0.22-0.13-0.56-0.13-0.77-0.02l-4.82,2.79c-0.21,0.12-0.19,0.32,0.03,0.44L213.66,255.36z M249.91,232.06
			c0.22,0.13,0.56,0.13,0.77,0.02l4.82-2.79c0.2-0.12,0.19-0.32-0.03-0.44l-1.49-0.86c-0.22-0.13-0.56-0.13-0.77-0.02l-4.82,2.79
			c-0.21,0.12-0.19,0.32,0.03,0.44L249.91,232.06z M271.06,219.85c0.22,0.13,0.56,0.13,0.77,0.02l4.82-2.79
			c0.2-0.12,0.19-0.32-0.03-0.44l-1.48-0.86c-0.22-0.13-0.56-0.13-0.77-0.02l-4.82,2.79c-0.21,0.12-0.19,0.32,0.03,0.44
			L271.06,219.85z M282.78,226.62c0.22,0.13,0.56,0.13,0.77,0.02l4.82-2.79c0.21-0.12,0.19-0.32-0.03-0.44l-5.58-3.22
			c-0.22-0.13-0.56-0.13-0.77-0.02l-4.82,2.79c-0.21,0.12-0.19,0.32,0.03,0.44L282.78,226.62z M300.41,244.51l4.82-2.79
			c0.21-0.12,0.19-0.32-0.03-0.44l-5.58-3.22c-0.22-0.13-0.56-0.13-0.77-0.02l-4.82,2.79c-0.2,0.12-0.19,0.32,0.03,0.44l5.58,3.22
			C299.86,244.62,300.2,244.63,300.41,244.51z M256.96,227.99c0.22,0.13,0.56,0.13,0.77,0.02l4.82-2.79
			c0.21-0.12,0.19-0.32-0.03-0.44l-1.49-0.86c-0.22-0.13-0.56-0.13-0.77-0.02l-4.82,2.79c-0.2,0.12-0.19,0.32,0.03,0.44
			L256.96,227.99z M199.55,263.5c0.22,0.13,0.57,0.13,0.77,0.02l4.82-2.79c0.21-0.12,0.19-0.32-0.03-0.44l-5.58-3.22
			c-0.22-0.13-0.56-0.13-0.77-0.02l-4.82,2.79c-0.2,0.12-0.19,0.32,0.03,0.44L199.55,263.5z"/>
		<path id="XMLID_168_" class="st6" d="M230.82,305.83l47.61-27.49c1.43-0.83,3.76-0.83,5.2,0l27.3,15.76c1.43,0.83,1.43,2.17,0,3
			l-47.61,27.49c-1.43,0.83-3.76,0.83-5.2,0l-27.3-15.76C229.39,308,229.39,306.65,230.82,305.83z"/>
	</g>
</g>
<g id="Shield">
	<g id="Shield_1_">
		<path id="XMLID_1436_" class="st3" d="M318.38,173.64c0-0.01,0.01-0.01,0.01-0.01l-0.06-0.04l-8.13-4.68
			c-0.47-0.21-1.16-0.01-1.99,0.62c-7.56,5.79-17.73,7.58-26.04,4.94c-0.53-0.49-1.04-1.02-1.52-1.58c-0.05-0.06-0.1-0.12-0.15-0.17
			h-0.01c-0.28-0.31-0.56-0.54-0.84-0.69l-0.14-0.08l-8.14-4.67c-0.93-0.44-1.77,0-2.33,1.38c-7.86,19.53-24.61,39.32-35.78,44.27
			c-0.83,0.37-1.6,0.94-2.2,1.64c-0.79,0.91-1.28,2.03-1.24,3.2l1.61,43.85c0,12.67,5.35,26.05,16.26,32.56l8.42,4.86l0.15,0.08
			c4.18,2.39,9.15,3.79,14.92,3.79c1.17,0,2.36-0.05,3.59-0.17c2.06-0.2,4.92-1.69,6.36-3.18c24.41-25.21,36.28-59.33,36.28-78.21
			l1.61-45.87C319.06,174.49,318.82,173.88,318.38,173.64z"/>
		<path id="XMLID_1457_" class="st3" d="M319.02,175.48l-1.61,45.87c0,18.88-11.87,53-36.28,78.21c-1.44,1.49-4.3,2.98-6.36,3.18
			c-1.23,0.12-2.42,0.17-3.59,0.17c-5.77,0-10.74-1.4-14.92-3.79l-0.15-0.08l-0.29-0.18c-10.91-6.51-16.26-19.89-16.26-32.56
			l-1.61-43.85c-0.04-1.17,0.45-2.29,1.24-3.2c0.6-0.7,1.37-1.27,2.2-1.64c11.17-4.95,27.92-24.74,35.78-44.27
			c0.56-1.38,1.41-1.83,2.34-1.39l0,0l0.14,0.08c0.28,0.15,0.56,0.38,0.84,0.69h0.01c0.05,0.05,0.1,0.11,0.15,0.17
			c8.34,9.71,24.74,9.7,35.69,1.32c0.83-0.63,1.52-0.83,1.99-0.62l0.06,0.04c0,0-0.01,0-0.01,0.01
			C318.82,173.88,319.06,174.49,319.02,175.48z"/>
		<g id="XMLID_1433_">
			<path id="XMLID_1454_" class="st9" d="M318.33,173.58c-0.47-0.21-1.16-0.01-1.99,0.62c-10.31,7.89-25.46,8.36-34.15,0.26
				c8.31,2.65,18.46,0.85,26.02-4.94c0.83-0.63,1.52-0.83,1.99-0.62L318.33,173.58z"/>
			<path id="XMLID_1463_" class="st10" d="M231.43,214.17c0.04-0.05,0.09-0.09,0.14-0.13C231.52,214.09,231.48,214.14,231.43,214.17
				C231.43,214.18,231.42,214.17,231.43,214.17z"/>
			<path id="XMLID_1455_" class="st11" d="M231.57,214.04c-0.05,0.05-0.09,0.1-0.14,0.14c0,0-0.01-0.01,0-0.01
				C231.47,214.12,231.52,214.08,231.57,214.04z"/>
		</g>
		<path id="XMLID_1453_" class="st11" d="M256.26,299.11l-0.15-0.07l-8.42-4.87c-10.91-6.51-16.26-19.89-16.26-32.56l-1.61-43.85
			c-0.03-0.86,0.23-1.7,0.69-2.44l8.12,4.69c-0.45,0.74-0.71,1.57-0.68,2.43l1.61,43.85c0,12.67,5.35,26.05,16.26,32.56l0.29,0.18
			L256.26,299.11z"/>
		<g id="XMLID_308_">
			<path id="XMLID_332_" class="st7" d="M284.98,258.77l-13,7.5l2.01-23.51c-1.55-0.82-2.54-2.84-2.54-5.75
				c0-5.18,3.15-11.19,7.03-13.43c3.88-2.24,7.03,0.14,7.03,5.32c0,2.9-0.99,6.07-2.55,8.69L284.98,258.77z"/>
			<polygon id="XMLID_327_" class="st5" points="284.98,258.77 273.21,251.97 271.99,266.27 			"/>
			<path id="XMLID_313_" class="st5" d="M278.48,223.58c-2.54,1.47-4.76,4.55-5.99,7.96l10.48,6.05l0,0
				c1.55-2.62,2.55-5.78,2.55-8.69C285.51,223.72,282.37,221.34,278.48,223.58z"/>
		</g>
	</g>
</g>
<g id="Key">
	<g id="Key_1_">
		<path id="XMLID_369_" class="st12" d="M115.92,395.33l0,3.91c-0.02,4.59,3.01,9.19,9.08,12.69c9.14,5.28,22.57,6.56,33.81,3.87
			l10.44,6.03l8.02-1.81l5.47,3.16l0.3,6.62l2.95,1.7l7.41,0.65l5.32,2.97v3.73l6.68,3.86h16.99l6.09-3.51v-3.95l-54.34-27.43
			c2.5-2.66,3.76-5.6,3.76-8.54l0-3.95c-0.82-3.81-4-5.78-9.07-8.71c-12.11-6.99-31.74-6.99-43.84,0
			C119.56,389.77,116.47,391.23,115.92,395.33z M132.56,390.77c3.43-1.98,8.99-1.98,12.42,0c3.43,1.98,3.43,5.19,0,7.17
			c-3.43,1.98-8.99,1.98-12.42,0C129.13,395.96,129.13,392.75,132.56,390.77z"/>
		<path id="XMLID_377_" class="st3" d="M125,407.99c9.14,5.28,22.57,6.56,33.81,3.87l10.44,6.03l8.02-1.81l5.47,3.16l0.3,6.62
			l2.95,1.7l7.41,0.65l5.78,3.22l-0.45,3.48l6.68,3.86h16.99l6.09-3.51l-54.34-31.37c6.4-6.79,4.64-15.46-5.3-21.2
			c-12.11-6.99-31.74-6.99-43.84,0C112.89,389.67,112.89,401,125,407.99z M132.56,386.82c3.43-1.98,8.99-1.98,12.42,0
			c3.43,1.98,3.43,5.19,0,7.17c-3.43,1.98-8.99,1.98-12.42,0C129.13,392.01,129.13,388.8,132.56,386.82z"/>
		<path class="st13" d="M146.92,409.8c-7.69,0-14.86-1.7-20.2-4.78c-4.68-2.7-7.36-6.23-7.36-9.68c0-3.45,2.68-6.98,7.36-9.68
			c5.34-3.08,12.52-4.78,20.2-4.78c7.69,0,14.86,1.7,20.2,4.78c4.68,2.7,7.36,6.23,7.36,9.68c0,3.45-2.68,6.98-7.36,9.68
			C161.78,408.1,154.61,409.8,146.92,409.8z M146.92,382.25c-7.45,0-14.38,1.63-19.52,4.6c-4.24,2.45-6.68,5.55-6.68,8.49
			c0,2.95,2.43,6.04,6.68,8.49c5.14,2.96,12.07,4.6,19.52,4.6c7.45,0,14.38-1.63,19.52-4.6c4.24-2.45,6.68-5.55,6.68-8.49
			c0-2.95-2.43-6.04-6.68-8.49C161.3,383.88,154.37,382.25,146.92,382.25z"/>
		<polygon id="XMLID_383_" class="st14" points="169.25,417.89 169.25,421.84 177.27,420.02 177.27,416.08 		"/>
		<polygon id="XMLID_384_" class="st14" points="182.74,419.24 182.74,423.19 183.04,429.8 183.04,425.86 		"/>
		<polygon id="XMLID_385_" class="st14" points="185.99,427.56 185.99,431.51 193.4,432.16 193.4,428.21 		"/>
		<rect id="XMLID_992_" x="205.41" y="438.77" class="st14" width="16.99" height="3.95"/>
		<polygon id="XMLID_1064_" class="st11" points="228.49,435.26 228.49,439.2 222.4,442.71 222.4,438.77 225.06,437.23 
			225.06,438.93 226.54,438.08 226.54,436.36 		"/>
		<polygon id="XMLID_1062_" class="st10" points="226.54,436.36 225.06,437.23 225.06,438.93 226.54,438.08 		"/>
		<polygon id="XMLID_367_" class="st11" points="226.54,436.36 226.54,438.08 170.81,405.9 172.29,405.04 		"/>
		<polygon id="XMLID_350_" class="st11" points="172.29,405.04 172.29,406.76 170.81,405.9 		"/>
	</g>
</g>
<g id="Character">
	<g id="Character_1_">
		<g id="XMLID_1498_">
			<path id="XMLID_1499_" class="st15" d="M414.53,288.56c0.7-26.05-1.39-32.29-8.32-37.06l-2.69,15.09c0,0,3.16,17.79,2.82,23.71
				c-0.3,5.2-0.8,11.71-2.03,15.92c-0.22,0.75-0.72,1.37-1.38,1.78c-1.77,1.1-2.48,2.24-3.81,3.63c-1.04,1.09-1.93,1.36-1.79,1.71
				c0.18,0.45,0.92,1.17,2.2,0.78c0.64-0.2,1.47-0.7,2.51-1.36c0,0-0.74,2.17-2.57,4.41c-2.48,3.04-2.58,4.9,2.41,4.94
				c3.13,0.03,5.63-1.9,7.99-8.81c0.68-1.99,1.74-5.13,2.2-7.75C413.27,298.73,414.42,292.75,414.53,288.56z"/>
		</g>
		<path id="XMLID_1497_" class="st16" d="M400.38,249.52c3.31-0.48,7.81,0.21,10.71,5.41c2.91,5.2,3.62,14.14,3.95,23.03
			c0,0-5.77,4.83-12.7,2.45L400.38,249.52z"/>
		<g id="XMLID_1262_">
			<g id="XMLID_1482_">
				<g id="XMLID_1493_">
					<path id="XMLID_1494_" class="st6" d="M410.12,392.78c0.53,0.2,0.66,1.2,0.74,3.19c0.06,1.51,0.38,4.14-1.38,4.66
						c-1.76,0.52-4.35,0.26-5.48-1.16c-1.41-1.77-2.36-3.33-4.38-5.49c-1.75-1.88-3.64-3.63-4.34-6.26
						c-0.64-2.38-0.11-3.41,1.52-4.1c2.23-0.95,5.73,2.15,7.48,2.64C405.77,386.68,409.59,392.58,410.12,392.78z"/>
				</g>
				<g id="XMLID_1491_">
					<path id="XMLID_1492_" class="st15" d="M410.12,390.93v2.44c0,0-2.54,1.95-6.18,0.17c-0.11-0.24-0.64-3.5-0.64-3.5
						L410.12,390.93z"/>
				</g>
				<g id="XMLID_1489_">
					<path id="XMLID_1490_" class="st6" d="M390.32,406.86c0,0,0.7,2.13,1.08,3.98c0.3,1.48,0.73,3.95,0.21,5.06
						c-0.52,1.11-2.54,1.83-5.66,1.8c-2.03-0.02-5.18,1.36-7.35,2.57c-2.23,1.25-6.88,1.74-9.24,1.47
						c-2.78-0.33-5.67-1.94-6.12-3.09c-0.45-1.15,0.15-2.35,6.71-5.15c0.06-0.03,9.12-2.97,12.29-6.48L390.32,406.86z"/>
				</g>
				<g id="XMLID_1487_">
					<path id="XMLID_1488_" class="st15" d="M390.32,404.22c0,0-0.01,1.81,0,2.85c0.01,1.04-1.22,2.58-4.38,2.47
						c-2.23-0.08-3.78-0.68-3.69-2.51v-2.64L390.32,404.22z"/>
				</g>
				<g id="XMLID_1485_">
					<path id="XMLID_1486_" class="st5" d="M411.71,358.5c-1.12-7.99-2.89-12.73-2.89-12.73s0.87-10.98,1.29-21.39
						c0.45-11.25-0.02-25.38,0.19-28.19c0,0-36.29-7.34-36.94,5.66c-0.65,13,1.43,46.09,1.86,51.81c0.43,5.71,1.42,10.76,2.6,20.02
						c1.16,9.14,4.43,30.71,4.43,30.71c4.15,2.24,8.07-0.17,8.07-0.17s2.55-26,2.29-32.59c-0.33-8.05-2.5-14.38-2.5-14.38
						s0.69-10.72,1.3-20.04c0.61-9.32,1.25-13.8,1.39-17.86l0.78-0.39c0,0,0.8,16.09,1.22,21.8c0.43,5.71,1.34,11.19,2.99,21.8
						c1.43,9.2,5.7,28.67,5.7,28.67c4.15,2.24,6.62-0.29,6.62-0.29S412.82,366.49,411.71,358.5z"/>
				</g>
				<g id="XMLID_1483_">
					<path id="XMLID_1484_" class="st6" d="M392.8,319.35c0,0,8.8-4.34,13.21-8.25c0,0-4.09,5.76-9.46,8.32
						c0,0-1.91,19.98-1.9,19.59l-1.1-19.69L392.8,319.35z"/>
				</g>
			</g>
			<g id="XMLID_1479_">
				<g id="XMLID_1480_">
					<polygon id="XMLID_1481_" class="st15" points="384.96,245.41 387.11,257.23 397.79,256.45 395.55,243.05 					"/>
				</g>
			</g>
			<g id="XMLID_1476_">
				<g id="XMLID_1477_">
					<path id="XMLID_1478_" class="st3" d="M409.06,255.58c-1.06-3.21-5.13-6.71-9.21-5.95c-7.5,1.39-13.44,2.88-17.87,4.46
						c-3.73,1.33-7.14,4.56-7.45,16.85c0,0-1.25,28.64-1.27,34.18c9.38,3.71,19.13,3.6,24.53,2.42c11.22-2.45,12.58-7.11,12.58-7.11
						s0.14-20.6-0.19-29.49C409.89,263.38,409.79,257.79,409.06,255.58z"/>
				</g>
			</g>
			<g id="XMLID_1471_">
				<g id="XMLID_1474_">
					<path id="XMLID_1475_" class="st17" d="M376.73,231.03c0,0-2.71,4.32-2.38,4.73c0.33,0.41,2.4,0.74,2.4,0.74L376.73,231.03z"/>
				</g>
				<g id="XMLID_1472_">
					<path id="XMLID_1473_" class="st15" d="M384.24,219.09c-5.65,1.32-7.23,3.85-7.56,12.88c-0.35,9.43,0.68,12.37,1.95,13.61
						c0.85,0.84,5.5,0.89,7.82,0.19c2.91-0.87,9.48-3.37,12.47-8.18c3.52-5.65,4.31-13.23,0.34-16.24
						C393.67,217.11,386.54,218.55,384.24,219.09z"/>
				</g>
			</g>
			<g id="XMLID_1263_">
				<g id="XMLID_1468_">
					<g id="XMLID_1469_">
						<path id="XMLID_1470_" class="st6" d="M376.75,221.44c1.66,2.84,5.25,4.19,5.25,4.19c1.08,1.23,0.49,6.04,2.39,6.81
							c0,0,0.82-3.5,3.76-3.13c2.96,0.37,3.45,4.13,1.64,6.46c-1.81,2.33-3.56,1.49-3.56,1.49s0.2,4.97,2.47,7.74
							c0,0,2.53,0.76,7.12-0.33c2.82-0.67,6.75-4.3,8.35-8.09c3.39-8.02,3.48-15.17-1.64-17.2c-0.63-3.65-3.55-5.22-6.85-5.9
							c-7.1-1.46-11.69,2.97-17.15,2.58C375.39,215.83,374.81,218.11,376.75,221.44z"/>
					</g>
				</g>
				<g id="XMLID_1264_">
					<g id="XMLID_1265_">
						<path id="XMLID_1467_" class="st6" d="M402.64,220.59l3.35-2.08c-0.57-0.92-1.79-1.21-2.71-0.64
							C402.35,218.45,402.07,219.67,402.64,220.59z"/>
					</g>
				</g>
			</g>
		</g>
		<path id="XMLID_1259_" class="st15" d="M336.84,275.37c1.76,0.78,22.44,16.07,25.67,14.29c3.22-1.78,19.77-21.11,19.77-21.11
			c4.8-7.96,0-14.5,0-14.5s-5.31,0.98-8.08,5.18c-2.77,4.2-14.77,19.24-14.77,19.24c-2.96-1.48-5.91-2.99-8.85-4.51
			c-2.42-1.25-4.85-2.51-7.23-3.86c-0.59-0.34-1.37-0.66-1.86-1.15c-1.17-1.16-0.97-3.96-0.95-5.48c0.01-0.71,0.02-1.42,0.1-2.13
			c0.1-0.87,0.27-3-1.3-2.32c-0.3,0.13-0.55,0.37-0.75,0.63c-0.25,0.32-0.44,0.68-0.56,1.07c-0.29,0.92-0.2,1.93-0.47,2.85
			c-0.04,0.14-0.09,0.27-0.19,0.37c-0.13,0.12-0.32,0.16-0.49,0.15c-2.28-0.07-4.44-3.26-5.48-4.96c-0.47-0.76-0.92-1.6-1.73-1.97
			c-1.25-0.58-2.75,0.25-3.55,1.37c-1.02,1.43-1.33,3.28-1.13,5.02c0.28,2.42,1.21,4.65,2.97,6.3
			C330.63,272.33,333.54,273.9,336.84,275.37z"/>
		<path id="XMLID_1240_" class="st16" d="M383.96,253.42c-2.28,0.26-6.07,0.43-9.79,4.64c-4.34,4.92-10.06,12.94-10.06,12.94
			s1.55,7.78,10,9.42c0,0,7.83-8.02,10-12.43C386.3,263.57,386.65,256.4,383.96,253.42z"/>
	</g>
</g>
</svg>
